{"glyphs":{":":{"x_min":0,"x_max":198,"ha":198,"o":"m 202 255 q 186 255 167 268 q 152 283 152 298 q 152 322 190 349 q 210 362 221 362 q 229 362 248 354 q 278 335 278 313 q 278 285 233 262 q 212 255 202 255 z m 132 45 q 116 45 97 58 q 82 73 82 88 q 82 112 120 139 q 140 152 151 152 q 159 152 178 144 q 208 125 208 103 q 208 75 163 52 q 142 45 132 45 z"},"$":{"x_min":0,"x_max":450,"ha":450,"o":"m 571 538 q 571 528 563 514 q 555 499 541 499 q 534 499 516 508 q 488 521 469 523 l 408 410 l 395 384 l 372 341 q 390 323 396 318 q 402 312 402 307 q 404 307 418 288 q 432 268 432 264 q 432 267 438 254 q 445 240 450 220 q 455 199 455 176 q 455 164 436 142 q 418 119 400 105 q 335 52 237 38 q 196 -64 194 -83 q 193 -110 188 -117 q 184 -124 170 -124 q 159 -124 152 -116 q 146 -108 146 -93 q 146 -64 161 -11 q 176 10 178 33 l 164 33 q 148 33 136 35 q 123 37 120 40 q 107 40 89 54 q 71 67 58 86 q 45 106 45 122 q 45 141 58 152 q 72 163 94 163 q 108 163 122 156 q 121 153 116 143 q 111 133 111 125 q 111 116 126 109 q 140 102 172 102 q 196 102 207 103 l 221 135 q 282 273 286 278 q 290 278 295 285 q 300 292 301 299 l 301 305 q 301 305 299 307 q 288 325 278 337 q 269 349 258 355 q 255 358 250 368 q 245 377 243 378 q 244 378 236 388 q 227 398 227 421 q 227 445 238 470 q 249 495 272 513 q 283 526 312 546 q 341 567 347 567 l 351 568 q 354 569 377 578 q 400 587 422 587 l 444 592 q 503 721 503 730 q 508 743 518 743 l 520 743 l 523 743 q 525 745 533 745 l 537 743 l 546 738 q 560 717 560 696 q 558 683 554 674 q 551 666 539 645 q 526 625 508 591 q 533 583 552 568 q 570 554 571 538 z m 409 520 q 376 514 354 489 q 330 474 318 457 q 306 440 306 427 q 307 424 311 413 q 315 402 323 393 l 338 377 q 356 409 409 520 z m 365 219 q 365 240 338 271 q 338 270 336 268 q 332 268 330 262 q 329 255 324 244 q 320 232 308 214 l 295 183 l 266 110 q 310 119 330 135 q 351 151 356 168 l 356 179 q 363 189 363 197 q 363 202 364 208 q 365 213 365 219 z"},"?":{"x_min":0,"x_max":374,"ha":374,"o":"m 217 220 q 217 221 216 228 q 214 235 214 242 q 214 247 215 250 q 215 255 224 275 q 231 292 234 300 q 245 319 268 344 q 290 370 307 382 l 324 394 q 324 398 338 409 q 352 420 362 425 q 366 428 376 435 q 386 442 395 450 q 417 472 428 492 q 439 511 444 531 q 449 551 459 599 q 460 632 456 641 q 453 650 440 660 q 426 662 418 662 q 351 662 314 581 q 307 563 307 555 q 307 550 310 542 q 310 536 312 524 q 315 513 315 507 q 313 506 302 503 q 291 500 279 500 q 259 500 248 511 q 246 514 240 522 q 234 529 230 535 q 226 541 225 547 q 224 553 224 560 q 225 566 225 573 q 237 611 261 648 q 285 685 319 702 q 337 710 354 720 q 372 729 377 732 q 379 732 387 732 q 395 733 410 735 l 415 735 l 421 735 q 431 735 431 731 l 460 731 q 478 726 505 708 q 532 691 543 679 q 549 660 549 633 q 549 583 530 524 q 511 466 481 433 l 459 413 q 410 369 397 354 q 365 336 338 300 q 312 263 298 223 q 279 183 247 183 q 232 184 224 195 q 217 206 217 220 z m 192 -2 q 177 -2 158 12 q 143 27 143 42 q 143 67 180 92 q 190 98 198 102 q 206 106 212 106 q 220 106 239 98 q 268 81 268 57 q 268 29 224 6 q 205 -2 192 -2 z"},"<":{"x_min":0,"x_max":446,"ha":446,"o":"m 243 86 q 237 90 225 96 q 195 113 180 125 q 164 137 149 158 l 116 198 l 105 251 q 114 253 121 257 q 128 261 129 261 q 139 266 160 280 q 202 308 246 333 q 349 386 370 407 q 375 413 382 416 q 390 419 396 419 q 402 421 416 410 q 429 399 432 397 q 437 393 443 390 q 449 386 451 384 q 453 381 454 376 q 454 373 451 365 q 448 357 442 352 q 428 340 378 314 q 311 279 275 257 q 258 247 236 236 q 222 228 218 224 q 213 221 213 213 l 214 205 q 232 184 272 164 q 311 143 383 121 q 430 106 448 92 q 466 78 466 61 l 465 53 q 460 45 441 39 q 422 33 400 33 q 369 33 348 43 q 338 46 316 52 q 294 57 277 65 q 260 73 243 86 z"},"'":{"x_min":0,"x_max":117,"ha":117,"o":"m 183 429 q 168 429 156 439 q 151 456 168 480 q 206 542 216 570 q 217 578 222 598 q 227 618 227 635 q 226 644 233 662 q 240 680 247 677 q 251 675 268 668 q 284 660 294 650 q 305 640 303 630 q 301 604 290 570 q 279 537 277 530 q 267 492 222 441 q 222 439 219 438 q 216 436 210 434 q 205 433 198 431 q 186 429 183 429 z"},"=":{"x_min":0,"x_max":446,"ha":446,"o":"m 199 272 q 170 272 162 286 q 153 297 153 304 q 153 316 170 324 q 186 332 221 331 q 294 345 394 345 q 423 345 436 340 q 450 335 463 323 q 477 311 477 297 q 477 287 469 281 q 461 275 447 277 l 363 272 q 288 267 241 267 q 221 267 199 272 z m 145 129 q 116 129 108 143 q 99 154 99 161 q 99 173 116 181 q 132 189 166 188 q 239 202 339 202 q 367 202 382 196 q 396 191 409 179 q 423 167 423 154 q 423 144 415 138 q 407 132 393 134 l 306 129 q 231 124 186 124 q 166 124 145 129 z"},"a":{"x_min":0,"x_max":446,"ha":446,"o":"m 93 49 q 93 53 88 60 q 84 68 80 74 q 72 82 91 126 q 110 170 142 230 q 148 236 158 251 q 167 266 170 268 q 170 272 173 276 q 176 279 180 279 l 188 295 q 192 304 227 338 q 262 372 282 384 q 301 397 323 397 q 347 397 364 383 l 391 360 q 421 335 425 331 l 462 298 l 445 248 q 436 221 436 197 q 436 159 457 126 q 462 115 470 109 q 479 103 493 101 q 515 97 515 79 q 515 57 507 46 q 499 35 488 32 q 472 30 466 30 q 437 30 413 45 q 389 60 371 96 q 367 102 360 118 q 354 134 353 140 q 346 130 330 114 q 227 10 163 10 q 141 10 124 21 q 121 27 107 37 q 93 47 93 49 z m 241 140 q 246 144 252 150 q 258 155 265 161 q 293 184 308 200 q 324 215 340 237 l 362 273 q 352 295 344 302 q 336 310 328 310 q 308 310 278 274 q 248 239 206 167 q 195 149 188 130 q 181 110 179 104 q 195 102 241 140 z"},"L":{"x_min":0,"x_max":426,"ha":426,"o":"m 90 56 q 89 62 89 80 q 89 105 91 130 q 93 154 96 158 q 99 160 99 170 q 98 176 106 203 q 113 221 110 234 q 111 236 114 241 q 116 246 120 251 q 125 256 126 262 q 126 267 125 269 l 125 270 q 125 274 128 280 q 130 287 133 291 q 136 294 138 299 q 141 304 142 306 q 143 313 158 350 q 172 388 177 396 l 177 398 q 181 408 188 419 q 190 433 202 458 q 225 509 266 576 q 308 642 332 665 q 358 695 379 695 q 390 695 399 686 q 406 679 410 666 q 415 653 415 643 q 415 629 407 628 q 397 621 376 587 q 356 553 322 491 l 307 463 q 294 435 284 416 q 275 397 272 391 l 268 382 q 244 331 223 272 q 218 266 216 260 q 215 253 215 251 q 213 252 212 246 q 210 239 208 234 q 201 228 201 205 q 192 181 185 145 q 178 109 178 86 q 178 64 186 50 q 193 36 209 29 q 233 17 245 17 q 252 16 266 18 q 281 20 300 23 l 299 23 q 304 24 354 35 q 378 38 394 44 q 402 46 416 50 q 431 55 438 56 q 445 56 448 54 q 454 48 460 38 q 465 27 462 19 q 460 14 441 -2 q 422 -19 399 -34 q 376 -49 359 -54 q 325 -69 261 -69 q 216 -69 194 -61 q 124 -44 90 56 z"},"3":{"x_min":0,"x_max":450,"ha":450,"o":"m 145 58 q 147 90 179 90 l 188 89 q 216 84 239 84 q 280 84 316 96 q 351 107 372 128 q 400 156 400 173 q 400 192 372 210 q 352 224 321 234 q 290 244 270 243 q 255 241 222 258 q 216 264 211 280 q 206 297 204 301 q 202 308 224 323 q 246 338 313 374 l 357 398 q 387 414 406 425 q 424 436 434 445 q 445 458 445 463 q 445 468 439 472 q 433 475 418 478 q 409 479 393 479 q 363 479 363 473 l 359 473 q 352 476 320 469 q 289 462 288 458 q 287 455 263 448 q 239 441 234 441 q 227 443 217 467 q 207 491 210 499 q 212 505 236 520 q 260 535 280 544 q 301 549 350 554 q 398 560 416 559 q 464 554 491 534 q 518 515 526 477 q 528 467 528 462 q 528 426 483 385 q 453 365 453 365 q 425 345 408 337 q 399 330 368 319 q 345 310 345 308 q 351 307 368 304 q 385 301 392 295 q 417 286 441 264 q 465 242 480 222 q 488 204 488 186 q 488 144 458 100 q 428 57 385 32 q 342 8 244 1 q 220 1 196 10 q 172 19 158 32 q 144 46 145 58 z"},";":{"x_min":0,"x_max":198,"ha":198,"o":"m 202 255 q 186 255 167 268 q 152 283 152 298 q 152 322 190 349 q 210 362 221 362 q 229 362 248 354 q 278 335 278 313 q 278 285 233 262 q 212 255 202 255 z m 27 -69 q 27 -63 31 -57 q 35 -51 42 -45 q 61 -27 77 2 q 93 30 95 33 q 100 48 111 92 q 111 112 116 117 q 134 132 144 132 q 167 132 176 78 q 178 64 178 58 q 178 32 159 -6 q 155 -16 132 -44 q 108 -72 103 -72 q 98 -72 89 -81 q 86 -84 77 -85 q 68 -86 57 -86 q 36 -86 27 -69 z"},"J":{"x_min":0,"x_max":315,"ha":315,"o":"m 43 -216 q 17 -216 -8 -205 q -33 -194 -50 -176 q -56 -169 -56 -151 q -56 -132 -50 -112 q -45 -94 -37 -94 q -33 -94 -26 -100 q -18 -105 -12 -113 q 8 -130 26 -130 q 62 -130 102 -68 l 128 -10 q 184 113 191 134 q 191 135 192 138 q 193 141 196 145 q 197 149 202 162 q 206 175 209 189 l 251 308 q 255 328 262 352 q 270 375 276 391 q 280 399 306 477 l 320 521 q 331 556 338 582 q 346 609 344 612 l 288 602 q 266 593 251 593 q 236 593 239 604 l 239 615 q 235 611 226 626 q 217 640 218 649 q 218 657 242 668 q 266 678 296 682 l 346 688 q 355 689 386 692 q 391 696 418 684 q 445 673 453 665 q 461 654 461 643 q 461 629 452 604 q 444 578 414 497 l 381 404 q 357 331 344 301 q 340 288 333 269 q 316 220 308 191 q 296 163 282 115 q 282 107 278 97 q 274 87 269 82 l 245 23 l 236 -1 q 234 -7 226 -28 q 217 -49 210 -59 q 207 -67 199 -80 q 191 -93 191 -96 q 191 -97 190 -100 q 189 -102 186 -102 q 185 -103 182 -106 q 180 -108 180 -112 q 175 -124 142 -160 q 108 -195 92 -204 q 70 -216 43 -216 z"},"V":{"x_min":0,"x_max":490,"ha":490,"o":"m 253 -38 q 253 -28 247 -22 q 241 -17 224 -13 q 212 -1 206 14 q 199 28 194 60 q 190 92 187 156 q 189 184 189 193 q 191 236 194 272 q 198 308 206 365 q 204 380 208 415 q 211 433 211 447 q 211 455 210 458 q 215 474 219 508 q 222 538 228 559 l 231 580 q 235 608 235 616 q 232 639 240 660 q 248 681 268 690 q 272 692 285 692 q 297 692 301 690 q 324 679 321 642 q 323 626 323 600 q 323 535 312 481 q 298 413 293 314 l 287 210 q 283 136 283 122 q 283 106 284 100 q 284 78 292 79 q 295 80 298 86 q 302 91 305 99 q 308 110 314 123 q 347 187 364 234 q 381 274 402 309 q 424 349 434 373 q 446 403 485 476 q 490 484 510 515 q 531 546 554 590 q 583 638 604 660 q 625 683 641 683 q 645 684 652 684 q 665 684 674 672 q 684 657 684 642 q 684 612 643 552 q 615 510 578 447 q 540 384 524 354 q 521 346 516 332 q 510 318 503 309 q 494 300 476 267 q 459 234 443 201 l 370 33 q 366 20 356 4 q 347 -11 347 -14 q 336 -31 305 -48 q 274 -65 264 -60 q 259 -58 257 -54 q 255 -50 253 -38 z"},"\"":{"x_min":0,"x_max":237,"ha":237,"o":"m 185 429 q 170 429 158 439 q 154 456 171 480 q 209 542 219 570 q 220 578 225 598 q 230 618 230 635 q 229 644 236 662 q 242 680 249 677 q 253 675 270 668 q 286 660 296 650 q 307 640 305 630 q 302 602 292 568 q 281 535 280 530 q 270 493 224 441 q 224 439 221 438 q 218 436 212 434 q 207 433 200 431 q 188 429 185 429 z m 317 429 q 302 429 290 439 q 285 456 302 480 q 340 542 350 570 q 351 578 356 598 q 361 618 361 635 q 360 644 366 662 q 373 680 380 677 q 384 675 400 668 q 417 660 428 650 q 438 640 436 630 q 433 602 422 568 q 412 535 411 530 q 401 493 355 441 q 355 439 352 438 q 349 436 344 434 q 338 433 331 431 q 321 429 317 429 z"},"7":{"x_min":0,"x_max":446,"ha":446,"o":"m 187 20 q 180 53 257 198 q 279 233 279 240 q 279 244 274 245 q 268 246 259 246 q 255 247 237 251 q 219 255 216 259 q 197 269 197 280 q 197 286 204 287 q 210 288 214 293 q 218 298 218 303 q 218 311 209 314 l 220 312 q 230 312 252 310 l 278 309 q 296 309 304 308 q 307 307 312 307 q 319 307 323 310 q 327 314 333 322 q 339 329 342 333 q 344 337 358 358 q 378 384 389 405 q 429 461 429 477 q 429 489 412 487 q 378 482 319 460 q 285 446 266 446 q 256 446 249 450 q 243 451 239 466 q 235 480 235 495 q 235 504 236 507 q 240 525 367 557 q 399 562 434 562 q 460 562 478 558 q 495 555 499 549 q 500 548 502 546 q 504 545 505 548 q 508 547 512 540 q 515 532 519 524 q 521 520 527 509 q 533 498 533 490 q 533 486 531 476 q 528 466 521 455 q 514 444 510 440 q 506 436 504 432 q 501 427 500 426 q 499 423 494 418 q 488 414 484 409 q 483 406 480 400 q 476 395 475 392 l 423 313 q 409 300 409 294 q 409 288 422 282 q 457 266 465 242 l 465 237 q 465 219 457 215 q 452 208 440 205 q 429 202 426 206 q 422 214 404 222 q 385 229 379 229 q 374 226 362 210 q 349 191 329 152 l 305 110 q 304 107 300 100 q 295 93 293 88 q 289 81 286 67 q 283 53 283 42 q 283 32 286 32 q 288 33 291 33 q 300 33 303 19 q 308 12 296 0 q 284 -11 266 -20 q 248 -28 237 -26 q 225 -24 209 -9 q 193 6 187 20 z"},"S":{"x_min":0,"x_max":495,"ha":495,"o":"m 226 -53 l 227 -50 q 227 -40 210 -39 q 189 -26 165 6 q 141 37 135 54 q 132 62 132 65 q 132 70 136 72 q 140 75 146 78 q 152 80 155 81 q 173 93 182 93 q 192 93 199 80 q 213 55 244 38 q 275 22 313 22 q 347 22 374 34 q 400 46 400 69 q 400 86 385 110 q 383 116 378 121 q 373 126 366 131 q 350 143 331 162 q 315 168 298 178 l 277 188 q 252 200 221 226 q 190 253 178 276 q 156 297 156 340 q 156 387 178 428 q 190 455 236 511 q 282 567 304 581 l 330 606 q 331 610 333 610 q 335 611 336 611 q 339 613 357 620 q 375 628 395 647 q 456 677 504 690 q 551 702 583 702 q 622 700 656 674 q 689 648 694 614 q 696 604 696 598 q 696 561 666 515 q 636 469 602 450 q 587 443 573 443 q 556 443 546 452 q 535 461 536 475 q 536 484 542 496 q 549 507 572 533 q 606 583 606 605 q 606 620 588 623 q 577 626 528 614 q 480 603 480 598 q 480 597 480 594 q 479 592 476 593 q 472 594 420 560 q 367 526 365 521 q 364 516 358 510 q 351 505 342 501 q 324 490 310 471 q 295 452 272 411 q 260 394 252 374 q 245 354 245 338 q 245 327 248 319 q 252 304 270 292 q 287 279 337 249 q 388 220 429 188 q 470 155 479 136 q 495 113 495 76 q 495 47 487 21 q 478 2 464 -14 q 450 -31 439 -30 q 429 -33 422 -38 q 415 -42 410 -44 q 398 -51 348 -58 q 299 -66 266 -65 z"},"}":{"x_min":0,"x_max":330,"ha":330,"o":"m 70 -87 q 70 -83 72 -80 q 75 -77 76 -76 q 81 -80 86 -80 q 91 -80 91 -76 q 93 -74 104 -68 q 114 -62 128 -56 q 158 -51 170 -46 q 181 -40 186 -30 q 190 -19 196 9 q 204 41 204 46 q 204 48 205 66 q 206 83 206 110 q 206 134 205 147 q 203 180 203 216 q 203 234 205 242 q 207 251 212 261 q 222 270 222 283 q 222 290 221 294 q 214 309 214 325 q 214 344 225 353 q 252 383 262 396 q 272 409 286 435 q 311 475 330 516 q 349 557 357 587 l 357 597 q 360 603 360 611 q 360 623 348 640 q 340 656 328 664 q 316 671 290 679 q 272 682 272 702 q 272 714 279 722 q 283 731 298 737 q 312 743 324 743 q 334 743 337 739 q 345 731 352 731 q 357 731 385 706 q 413 682 421 668 q 428 663 433 619 q 437 599 437 595 q 437 585 425 549 q 411 505 400 474 q 388 443 383 437 q 380 435 376 433 q 372 431 372 428 q 372 421 354 390 q 335 360 322 347 q 318 343 315 336 q 312 330 311 328 l 304 324 q 297 319 297 312 q 297 308 304 289 q 305 281 310 272 q 315 263 318 258 q 318 252 317 248 q 316 244 313 244 q 297 235 291 217 q 285 199 285 162 l 286 127 q 287 94 285 59 q 283 24 279 15 q 263 -55 256 -55 q 255 -55 254 -56 q 252 -57 253 -59 q 253 -73 234 -89 q 216 -105 189 -116 q 162 -126 137 -126 q 112 -126 91 -112 q 70 -99 70 -87 z"},"Z":{"x_min":0,"x_max":522,"ha":522,"o":"m 47 -7 q 47 10 54 27 q 61 44 70 53 l 84 68 q 123 112 172 160 q 221 209 314 292 q 368 339 396 365 q 423 391 463 433 l 477 448 q 513 485 530 506 q 547 526 551 542 q 555 554 555 564 q 555 577 542 581 q 528 585 485 588 q 451 590 435 590 q 370 590 276 574 q 270 572 260 580 q 250 589 250 594 q 254 600 254 606 q 254 618 246 623 q 244 629 244 633 q 244 646 254 656 q 261 659 307 667 l 329 670 q 361 675 427 675 q 454 675 482 673 q 560 665 606 654 q 651 643 663 614 q 669 599 669 588 q 669 574 657 545 q 652 529 650 525 q 632 491 579 429 q 526 367 470 316 q 344 198 281 145 q 215 88 177 52 q 170 43 170 38 q 170 31 178 28 q 186 25 206 25 q 237 25 269 31 q 272 32 288 35 q 303 38 327 39 q 355 41 366 41 q 446 46 479 46 q 486 46 491 43 q 496 40 505 28 q 515 25 515 10 q 515 -1 510 -12 q 504 -24 497 -30 q 492 -30 486 -31 q 481 -32 474 -33 q 424 -42 398 -41 q 369 -39 270 -50 q 222 -58 154 -58 q 128 -58 118 -57 q 84 -55 66 -46 q 47 -37 47 -7 z"},"x":{"x_min":0,"x_max":343,"ha":343,"o":"m 370 -6 q 364 -6 356 -3 q 347 0 338 4 q 317 13 277 48 q 237 83 237 95 q 237 98 236 99 q 235 100 232 100 q 231 101 228 104 q 226 107 226 111 q 226 115 223 118 q 220 121 216 121 l 169 73 q 137 41 125 30 q 113 20 106 20 q 97 20 84 28 q 72 36 63 50 q 54 63 54 79 q 59 86 80 108 q 100 129 123 149 l 174 201 l 163 239 q 145 278 137 302 q 131 310 128 316 q 124 321 124 325 q 124 329 132 340 q 139 347 152 354 q 165 360 177 360 q 183 360 189 357 q 197 357 214 324 q 232 290 232 277 q 232 268 234 264 q 235 260 239 260 q 246 260 269 275 q 280 285 286 292 q 293 299 295 301 q 356 352 365 356 q 370 359 374 359 q 387 359 402 346 q 416 332 416 319 q 416 286 382 267 q 357 249 337 230 l 303 200 l 277 179 l 293 152 q 297 144 304 136 q 312 127 319 123 q 327 112 354 91 q 381 70 385 70 q 388 70 394 66 q 401 62 406 60 q 413 53 413 37 q 413 20 406 4 q 399 -12 391 -12 q 375 -12 370 -6 z"},")":{"x_min":0,"x_max":330,"ha":330,"o":"m 16 -82 q 16 -80 16 -70 q 17 -60 21 -54 q 22 -55 26 -56 q 29 -58 36 -58 q 44 -58 50 -56 q 69 -57 80 -52 q 90 -48 105 -30 l 123 -7 q 146 20 150 31 q 164 41 171 50 q 178 58 186 71 q 186 93 204 122 q 217 150 223 160 q 235 184 235 187 q 236 189 238 196 q 241 203 240 211 q 246 214 250 224 q 255 235 254 246 q 255 250 264 270 q 272 291 273 311 q 289 362 294 401 q 299 440 304 525 l 306 578 q 307 591 307 609 q 307 624 305 632 q 303 641 297 651 q 287 683 280 683 q 278 683 276 688 q 274 694 274 703 q 274 712 277 721 q 276 725 292 730 q 307 735 316 734 q 322 734 330 728 q 339 723 343 719 q 350 726 374 660 q 383 640 386 630 q 388 620 388 602 l 386 560 l 384 527 q 383 477 375 414 q 367 351 356 298 q 343 246 310 162 q 278 79 263 55 q 267 56 229 1 l 190 -59 q 166 -92 129 -116 q 92 -141 72 -135 q 53 -130 35 -114 q 17 -97 16 -82 z"},"&":{"x_min":0,"x_max":564,"ha":564,"o":"m 628 -74 q 605 -74 578 -67 q 550 -60 533 -50 q 516 -45 490 -18 q 465 8 417 65 q 348 27 322 14 q 296 2 258 -9 q 247 -10 226 -10 q 178 -10 137 4 q 125 8 99 25 q 73 42 65 50 q 60 53 57 72 q 54 90 54 108 l 55 119 q 61 138 112 205 q 162 272 211 321 q 174 375 174 424 q 174 479 216 553 q 228 573 252 600 q 277 626 298 644 q 319 663 321 660 q 324 655 328 655 q 330 655 332 656 q 335 657 337 657 q 341 659 351 659 q 364 659 382 656 q 401 653 415 649 q 454 644 468 640 q 481 636 492 623 q 513 607 532 580 q 550 554 550 540 q 550 527 529 500 q 508 473 475 443 q 464 430 452 418 q 439 405 435 402 q 435 397 430 390 q 424 384 417 381 q 394 361 364 333 q 334 305 333 302 q 332 298 353 267 q 374 236 398 208 q 421 179 427 179 q 464 215 498 243 q 523 265 568 306 q 604 345 622 345 q 631 345 642 334 q 656 331 656 309 q 656 298 653 286 q 650 275 648 271 q 625 240 544 170 q 498 128 484 114 q 487 110 498 98 q 508 86 521 74 q 555 39 572 26 q 590 12 613 5 q 643 -5 654 -18 q 665 -31 667 -54 q 668 -64 657 -69 q 646 -74 628 -74 z m 332 420 q 382 458 409 485 q 436 512 436 537 q 436 543 435 546 q 431 553 413 560 q 395 568 379 567 q 360 568 344 554 q 327 540 302 504 q 284 478 275 458 q 266 437 266 419 q 266 397 280 377 q 294 393 332 420 z m 227 70 q 251 70 274 82 q 297 93 347 127 l 366 141 l 341 170 q 333 180 324 193 q 313 210 302 223 q 290 234 284 242 q 279 251 278 253 q 273 253 254 232 q 234 211 225 196 q 207 182 196 168 q 185 155 176 140 q 167 126 163 120 q 158 110 158 101 q 158 94 162 91 q 165 88 172 84 q 179 81 186 77 q 207 70 227 70 z"},"_":{"x_min":0,"x_max":446,"ha":446,"o":"m 79 -9 q 54 -9 43 11 q 38 17 38 23 q 38 32 51 36 q 64 41 94 44 q 124 51 208 54 q 292 58 349 58 q 375 58 388 54 q 401 51 412 40 q 421 31 421 19 q 421 8 412 1 q 402 -6 388 -4 l 310 -9 q 278 -10 218 -12 q 159 -14 114 -14 q 94 -14 79 -9 z"},"v":{"x_min":0,"x_max":331,"ha":331,"o":"m 122 233 q 118 254 106 290 q 104 298 104 303 q 104 318 112 334 q 120 349 130 355 q 134 358 148 360 q 161 361 166 360 q 188 352 206 238 q 210 207 212 193 q 215 179 215 174 q 217 168 219 160 q 221 152 223 149 q 225 146 230 151 q 241 162 263 191 q 274 205 296 237 l 325 276 q 337 292 357 311 q 377 330 388 333 q 402 335 410 328 q 419 320 419 307 q 419 288 403 266 q 397 258 390 244 q 384 231 382 229 q 371 207 342 167 q 312 127 302 117 q 300 115 286 103 q 271 91 259 74 q 228 44 201 44 q 188 44 179 53 q 168 61 149 121 q 130 181 122 233 z"},"O":{"x_min":0,"x_max":505,"ha":505,"o":"m 105 61 q 104 66 104 79 q 104 107 109 149 q 114 191 119 216 q 123 220 124 228 q 124 236 123 238 q 123 241 128 258 q 140 295 145 320 q 172 402 198 451 q 224 500 256 543 q 324 613 401 649 q 440 672 457 672 q 460 672 466 670 q 589 643 613 514 q 622 453 622 422 q 622 372 604 321 q 586 270 539 193 q 499 113 448 56 q 398 0 348 -28 q 297 -56 253 -56 q 214 -56 187 -35 q 148 -6 127 17 q 106 40 105 61 z m 380 113 q 422 161 439 184 q 456 206 470 240 q 485 274 503 338 l 509 361 q 515 382 518 396 q 520 409 520 425 l 519 488 q 518 506 512 527 q 506 548 498 557 q 490 566 476 572 q 463 579 449 579 q 439 579 426 574 q 407 566 373 532 q 339 497 312 461 q 286 425 286 413 q 286 412 285 407 q 284 402 281 398 q 255 370 228 280 q 202 190 198 123 q 197 94 198 83 q 200 72 209 58 q 216 47 234 38 q 253 28 267 31 q 291 34 304 40 q 318 46 332 60 q 347 75 380 113 z"},"(":{"x_min":0,"x_max":330,"ha":330,"o":"m 156 -17 q 138 24 138 89 q 138 156 158 230 q 170 271 172 296 q 174 303 207 379 q 245 465 255 493 q 276 539 330 618 q 385 696 403 710 q 405 712 415 721 q 425 730 433 732 q 437 742 448 750 q 460 757 470 757 q 486 766 505 766 q 522 766 535 757 q 548 748 553 729 l 555 717 q 555 711 551 708 q 547 706 531 698 q 518 693 504 686 q 490 678 484 671 q 475 659 464 648 q 453 638 447 634 q 429 627 429 618 q 427 613 418 596 q 409 580 393 560 q 373 528 366 515 q 361 506 340 471 q 337 466 329 451 q 321 436 310 423 q 310 418 306 407 q 303 396 295 384 q 289 362 271 325 q 259 300 246 256 q 232 213 232 199 q 229 199 226 187 q 224 175 221 146 l 216 110 q 214 44 224 10 q 234 -24 262 -54 q 274 -64 285 -69 q 296 -74 310 -75 l 344 -96 q 338 -118 320 -129 q 303 -140 284 -138 q 238 -132 204 -98 q 170 -63 156 -17 z"},"C":{"x_min":0,"x_max":477,"ha":477,"o":"m 120 19 q 104 64 104 125 q 104 184 111 226 q 118 267 135 310 l 144 331 q 160 372 167 385 q 184 424 227 486 q 267 546 290 576 q 314 605 339 626 q 364 648 412 681 q 441 702 483 702 q 516 702 544 686 q 571 670 585 636 q 595 619 595 589 q 595 541 572 485 q 549 429 517 400 q 510 393 498 393 q 486 393 472 400 q 458 407 447 417 q 438 434 437 437 q 436 440 441 441 q 450 452 468 484 q 485 515 491 533 l 497 561 q 503 587 503 595 q 503 604 496 611 q 493 614 488 614 q 480 614 460 604 q 437 594 406 564 q 374 533 343 491 q 297 431 272 392 q 248 353 235 313 l 224 287 q 225 283 221 267 q 217 251 212 241 q 198 183 198 136 q 198 99 206 72 q 213 45 227 32 q 235 25 250 25 q 266 25 286 32 q 307 40 330 50 q 353 60 362 64 q 385 73 406 85 q 426 97 436 107 q 462 126 478 126 q 491 130 498 118 q 506 106 506 85 q 506 71 487 52 q 468 32 442 17 q 431 6 393 -9 q 361 -32 318 -50 q 276 -68 241 -68 q 233 -68 221 -66 q 190 -55 162 -34 q 133 -13 120 19 z"},"W":{"x_min":0,"x_max":720,"ha":720,"o":"m 465 -40 q 460 -35 452 -18 q 443 -1 441 10 q 437 58 437 80 q 437 108 440 156 q 444 206 454 243 q 465 280 480 322 q 484 331 486 337 q 488 343 486 343 q 479 342 461 301 q 458 295 454 285 q 449 275 442 263 q 414 201 339 75 q 330 64 314 40 q 283 -7 263 -25 q 235 -52 204 -52 q 191 -52 175 -45 q 159 -43 144 -23 q 129 -3 133 15 q 130 40 138 118 q 147 195 156 247 q 163 295 187 405 l 209 513 q 215 528 228 573 l 237 606 q 238 622 248 630 q 257 637 271 637 q 283 637 294 632 q 305 628 310 621 q 331 598 331 571 q 331 555 324 537 q 279 427 252 247 q 242 185 234 130 q 227 75 231 74 q 246 70 269 118 q 335 227 420 393 q 422 396 464 475 l 488 520 l 504 549 q 530 596 545 620 q 560 644 567 647 q 592 647 606 634 q 619 622 629 599 q 631 591 631 580 q 631 570 628 561 q 626 555 618 531 q 611 507 606 483 q 587 433 578 386 q 574 367 570 349 q 566 331 563 315 q 546 240 538 190 q 529 140 528 101 q 527 75 528 66 q 530 57 534 47 q 535 42 539 42 q 545 42 557 57 q 571 76 580 94 q 588 112 591 118 q 603 147 616 170 q 651 236 692 322 q 732 408 761 476 q 790 559 806 594 q 823 630 838 639 q 844 643 857 643 q 876 643 885 635 q 887 634 898 624 q 909 614 908 601 q 899 570 859 471 q 819 372 797 324 q 793 317 781 297 q 779 294 772 282 q 766 271 766 265 q 766 255 714 160 q 661 66 636 34 q 613 5 585 -16 q 557 -38 534 -50 q 511 -62 503 -62 q 490 -63 480 -56 q 469 -50 465 -40 z"},"A":{"x_min":0,"x_max":511,"ha":511,"o":"m 61 -33 q 50 -27 46 -22 q 41 -17 41 -9 q 41 1 50 20 q 58 38 79 78 q 85 91 102 124 q 145 206 145 245 q 144 247 144 251 q 144 261 160 269 q 163 272 182 286 q 200 300 211 318 q 224 348 244 384 q 264 421 313 504 q 361 592 415 663 q 425 677 438 685 q 450 693 459 693 q 490 693 522 669 q 555 645 565 621 q 569 614 569 591 q 569 560 562 486 q 560 473 558 445 q 555 400 549 349 q 538 237 533 174 q 528 111 528 56 q 528 28 529 15 l 529 8 l 528 -15 q 522 -21 504 -21 q 484 -21 464 -14 q 444 -8 442 1 q 441 2 439 3 q 437 4 437 12 l 438 34 l 441 90 l 446 243 l 433 242 q 413 242 348 234 q 284 226 267 221 q 258 221 245 209 q 232 197 222 178 q 219 168 208 150 q 197 131 197 128 q 191 124 186 118 q 182 111 181 109 q 181 98 162 52 q 142 7 123 -22 l 96 -60 z m 365 320 q 413 332 431 332 q 441 332 445 330 q 448 326 452 324 q 455 323 456 323 q 458 331 472 432 q 486 533 486 556 q 486 572 485 584 q 484 595 483 598 q 474 598 442 550 q 410 503 380 443 q 357 402 348 402 q 341 395 318 355 q 295 315 300 311 q 307 312 328 316 q 349 319 365 320 z"},"f":{"x_min":0,"x_max":300,"ha":300,"o":"m 84 -82 q 78 -76 76 -70 q 74 -65 74 -56 l 76 -31 q 81 -16 81 4 q 81 12 88 54 q 95 97 99 116 l 102 128 q 110 161 114 189 q 122 214 128 238 q 133 263 133 272 q 133 290 147 298 q 148 306 162 331 q 186 399 198 428 q 209 458 222 480 q 240 530 251 543 q 258 560 289 593 q 320 626 344 646 q 394 672 428 672 q 457 672 495 636 q 509 621 511 616 q 513 611 513 597 q 509 578 478 530 q 447 482 439 481 q 427 477 423 477 q 414 477 408 483 q 402 489 402 501 q 402 520 414 545 q 426 561 426 573 q 426 590 399 590 q 391 586 368 562 q 344 537 344 531 q 343 529 338 520 q 334 512 325 501 q 307 476 307 470 q 307 457 301 457 q 300 455 296 446 q 293 436 287 425 q 283 416 277 405 q 271 394 267 390 l 268 390 q 265 383 257 364 q 249 344 249 341 q 249 337 261 337 q 283 337 323 348 q 336 352 342 352 q 349 352 362 348 q 373 341 380 317 q 387 293 383 287 q 382 283 362 276 q 341 269 319 265 l 278 256 q 221 244 221 240 q 217 240 214 236 q 211 232 211 228 q 211 214 207 207 q 202 193 190 140 q 179 87 179 75 q 171 65 171 39 q 165 28 165 14 q 165 8 164 4 q 164 -1 162 -20 q 160 -39 160 -55 l 157 -84 q 156 -96 154 -106 q 152 -116 147 -121 q 141 -125 120 -112 q 98 -98 84 -82 z"},"Q":{"x_min":0,"x_max":492,"ha":492,"o":"m 548 283 q 547 283 544 282 q 542 281 542 277 q 544 269 538 244 q 531 219 517 192 q 477 81 415 9 l 427 -12 q 429 -19 439 -35 q 451 -53 454 -63 q 473 -92 473 -108 q 473 -128 441 -126 q 423 -127 402 -119 q 382 -111 379 -98 q 373 -92 372 -86 q 371 -81 370 -79 q 366 -77 360 -69 q 353 -61 350 -51 q 299 -87 249 -87 q 240 -87 235 -86 q 212 -82 177 -56 q 142 -31 132 -9 q 104 48 104 115 q 104 167 119 239 q 129 277 152 344 q 175 412 179 412 q 182 415 182 429 q 182 440 213 489 q 244 538 268 559 q 290 588 316 612 q 341 637 364 649 q 372 654 402 662 q 431 671 447 672 q 496 675 528 657 q 561 639 581 599 q 595 583 600 567 q 604 551 607 523 q 607 517 609 501 q 609 466 600 414 q 590 361 576 322 q 561 283 548 283 z m 521 527 q 521 552 512 564 q 502 577 481 587 q 464 592 452 592 q 407 592 363 548 q 319 503 283 416 q 235 313 214 244 q 192 174 192 118 q 192 83 199 55 q 204 -2 236 -2 q 245 -2 250 0 q 282 5 310 28 l 287 71 q 264 117 260 121 q 257 124 257 129 q 257 136 262 141 q 267 152 280 161 q 292 170 307 170 q 314 170 318 169 q 341 169 360 121 q 362 112 369 97 q 415 169 461 300 q 467 316 476 336 q 496 381 507 419 q 518 457 519 499 q 521 521 521 527 z"},"w":{"x_min":0,"x_max":517,"ha":517,"o":"m 110 173 q 110 209 115 233 q 120 257 121 263 q 123 268 125 280 q 127 293 133 316 q 140 345 149 359 q 163 379 186 379 q 198 379 208 372 q 217 366 218 354 q 224 348 224 325 q 224 308 221 292 q 218 276 213 269 q 210 263 204 211 q 200 173 198 162 q 197 158 197 151 q 197 138 204 138 q 219 138 259 197 q 286 237 294 254 q 303 272 316 308 q 326 339 334 348 q 344 362 362 362 q 379 362 394 351 q 409 336 409 312 q 409 294 399 274 q 387 249 377 213 q 367 177 367 154 q 367 136 372 132 q 376 127 386 127 q 397 127 408 135 q 418 143 441 166 q 458 183 488 230 q 518 277 518 286 q 518 292 527 303 q 532 310 536 315 q 541 320 550 325 q 556 327 560 327 q 574 327 585 316 q 589 312 592 297 q 595 282 595 269 q 574 191 562 178 q 543 163 530 141 q 506 112 492 100 q 479 89 475 85 q 453 63 424 50 q 395 37 370 37 q 350 37 338 46 q 307 62 307 100 q 307 107 305 113 q 303 119 302 121 q 287 121 278 105 q 264 81 226 56 q 189 30 170 30 q 155 30 140 52 q 125 75 116 108 q 108 142 110 173 z"},"-":{"x_min":0,"x_max":326,"ha":326,"o":"m 135 177 q 110 177 99 197 q 94 203 94 210 q 94 227 150 233 q 213 247 290 247 q 338 247 360 226 q 369 217 369 205 q 369 194 360 187 q 350 180 336 182 l 266 177 q 261 177 231 174 q 201 172 170 172 q 150 172 135 177 z"},"E":{"x_min":0,"x_max":534,"ha":534,"o":"m 120 22 q 103 39 94 58 q 85 78 79 110 q 77 122 77 131 q 77 161 88 204 q 98 248 109 272 q 131 325 206 442 q 210 446 212 448 q 213 449 212 450 q 212 450 212 450 q 212 457 241 512 q 258 530 258 543 q 258 550 255 554 q 252 558 263 572 q 274 585 294 602 q 313 618 335 630 q 362 651 388 651 q 396 651 402 648 q 407 646 408 641 q 408 635 448 645 q 466 649 474 650 q 478 655 494 658 q 511 662 541 666 q 557 665 580 666 q 604 667 611 668 q 618 670 632 659 q 645 648 653 631 q 655 625 655 622 q 655 607 636 596 q 617 586 581 582 q 544 577 516 572 q 488 567 446 558 l 425 554 q 394 549 379 541 q 364 533 347 506 q 340 501 329 480 q 318 460 307 438 l 287 411 q 264 380 258 370 q 253 361 256 357 q 260 356 270 354 q 281 352 288 351 q 297 356 313 358 q 329 360 336 362 l 358 368 q 420 384 449 391 q 478 398 492 400 q 497 404 504 404 q 515 404 526 394 q 536 383 541 369 q 545 355 545 351 q 545 334 525 326 q 505 317 445 303 q 358 282 336 276 q 271 257 240 257 q 214 257 215 274 q 206 279 194 256 q 182 233 174 199 q 165 165 165 140 q 165 127 168 118 q 177 94 195 78 q 213 61 245 52 q 252 51 262 50 q 273 49 287 49 q 307 49 327 57 q 405 70 437 93 q 442 95 446 100 q 451 105 455 105 l 454 103 q 454 102 460 108 q 466 113 473 119 q 501 143 535 143 q 547 143 556 140 q 564 136 565 133 q 571 123 559 101 q 547 79 522 55 q 496 31 465 13 q 416 -13 356 -26 q 295 -38 239 -39 q 215 -37 191 -24 q 167 -11 147 3 q 127 17 120 22 z"},"s":{"x_min":0,"x_max":350,"ha":350,"o":"m 90 46 q 90 58 101 61 l 106 65 q 108 66 114 66 q 118 67 124 66 q 130 64 134 64 q 141 62 155 60 l 181 57 q 201 57 218 61 q 236 65 236 70 q 236 73 228 80 q 220 87 211 87 q 211 91 180 114 q 163 127 148 140 q 132 153 132 159 l 133 161 l 133 166 q 126 166 120 185 q 114 204 114 222 q 114 256 144 297 q 174 338 218 371 q 263 404 303 416 q 318 423 347 423 q 366 423 373 419 l 381 421 q 393 421 412 401 q 431 381 436 369 q 436 336 434 316 q 432 296 424 296 q 423 296 421 295 q 419 294 419 290 q 419 276 394 259 q 370 242 350 242 l 346 243 q 340 244 328 255 q 317 266 317 277 q 317 280 329 293 q 341 306 350 318 q 358 331 358 345 q 358 350 354 352 q 351 353 341 353 q 286 328 262 306 q 259 300 256 297 q 254 294 250 294 q 250 294 250 294 q 250 295 249 295 q 247 295 236 284 q 225 272 216 257 q 206 242 204 229 l 202 226 l 202 221 q 201 219 201 213 q 201 204 209 194 q 217 185 241 168 q 286 134 302 118 q 319 101 323 88 q 332 70 332 56 q 332 22 296 4 q 261 -15 200 -15 q 176 -15 150 -5 q 125 5 108 20 q 90 34 90 46 z"},">":{"x_min":0,"x_max":446,"ha":446,"o":"m 162 42 q 157 46 151 50 q 145 53 143 56 q 141 58 140 63 q 140 66 143 74 q 146 82 152 87 q 166 99 216 125 q 283 160 319 182 q 336 192 358 203 q 372 211 376 214 q 381 218 381 226 l 380 234 q 362 255 322 276 q 283 296 211 318 q 164 333 146 347 q 128 361 128 378 l 129 386 q 134 394 153 400 q 172 406 194 406 q 225 406 246 396 q 256 393 278 388 q 300 382 317 374 q 334 366 351 353 q 357 349 369 343 q 399 326 414 314 q 430 302 445 281 l 478 241 l 489 188 q 480 186 473 182 q 466 178 465 178 q 455 173 434 159 q 392 131 348 106 q 245 53 224 32 q 219 26 212 23 q 204 20 198 20 q 192 18 178 29 q 165 40 162 42 z"},"l":{"x_min":0,"x_max":178,"ha":178,"o":"m 134 -12 q 113 -12 99 12 q 85 36 85 73 q 85 93 89 112 q 100 141 100 154 q 103 173 120 222 q 138 272 143 282 q 147 282 150 288 q 153 295 153 303 q 153 312 156 322 q 160 331 164 335 q 164 338 166 346 q 169 354 169 357 q 169 359 172 364 q 174 370 174 373 q 190 404 230 512 q 270 621 270 633 q 270 641 276 648 q 282 655 290 655 q 293 658 303 660 q 313 661 319 661 l 335 645 q 346 635 352 627 q 358 619 358 608 q 358 590 352 572 q 345 555 314 490 q 312 485 298 454 q 288 434 288 431 q 288 428 284 418 q 280 409 277 399 q 269 383 252 342 q 234 302 234 298 q 234 287 229 282 q 226 282 225 278 q 224 273 224 271 q 224 261 208 218 l 199 189 q 180 124 172 94 q 165 64 165 43 q 165 21 158 7 q 151 -7 142 -11 q 139 -12 134 -12 z"},"8":{"x_min":0,"x_max":450,"ha":450,"o":"m 121 -6 q 119 -2 114 9 q 109 20 109 32 q 109 36 111 50 q 111 85 123 104 q 135 138 173 195 q 211 252 239 287 q 250 300 250 308 q 250 314 244 324 q 238 334 229 347 q 226 355 222 362 q 217 369 219 369 q 218 370 216 373 q 214 376 211 383 q 196 397 196 426 q 196 455 211 483 q 227 520 254 546 q 281 571 311 575 q 343 571 386 562 q 430 554 453 544 q 471 536 503 512 q 535 489 537 481 q 537 479 540 474 q 543 470 545 466 q 551 453 551 428 q 551 411 548 396 q 545 380 540 372 q 515 344 505 340 q 502 338 494 331 q 487 324 479 322 q 466 305 461 305 q 456 308 452 308 q 449 309 449 305 q 448 301 422 290 q 396 278 390 281 l 389 281 q 384 281 378 277 q 373 278 376 270 q 380 261 393 245 q 432 172 432 132 q 432 113 424 102 q 405 59 383 31 q 361 3 348 5 l 334 -4 q 332 -10 326 -13 q 320 -16 314 -15 l 311 -14 q 300 -14 283 -25 q 268 -35 242 -42 q 215 -49 196 -49 q 188 -49 182 -47 q 173 -46 154 -32 q 134 -18 121 -6 z m 398 377 q 406 377 411 369 q 413 365 430 375 q 448 385 464 401 q 468 408 468 410 q 468 412 466 416 q 464 420 463 428 q 464 441 462 446 q 461 451 454 456 q 446 462 425 470 q 380 486 348 486 q 301 486 284 442 q 278 424 278 412 q 278 397 286 382 q 293 379 297 373 q 301 367 301 365 q 301 362 303 359 q 305 356 309 356 q 310 352 316 348 q 321 344 329 344 q 342 344 360 355 q 385 377 398 377 z m 300 70 q 349 110 349 147 q 349 161 345 170 q 325 211 320 218 q 311 232 300 238 q 299 236 294 230 q 290 223 286 214 q 273 197 267 187 l 245 165 q 245 162 239 148 q 233 134 225 119 q 196 69 196 44 q 196 29 208 29 q 222 29 250 42 q 277 54 300 70 z"},"\\":{"x_min":0,"x_max":330,"ha":330,"o":"m 319 -114 q 301 -111 305 -95 q 306 -82 273 64 q 240 210 228 243 l 228 245 q 228 248 226 252 q 225 257 226 259 q 226 264 224 272 q 223 280 224 283 q 216 290 218 314 l 218 318 q 218 325 216 331 q 214 337 210 337 q 206 351 184 457 q 163 563 162 582 q 163 589 161 603 q 159 617 158 625 q 157 635 157 652 q 157 697 172 720 q 186 743 207 743 q 213 743 225 739 q 230 735 234 723 q 237 711 237 695 q 237 688 235 674 q 233 658 242 602 q 250 546 260 488 q 264 465 268 438 q 273 411 276 384 q 282 364 284 348 q 286 333 284 329 l 284 327 q 284 318 288 318 q 291 314 292 309 q 292 304 293 301 q 292 297 303 255 q 314 213 321 196 q 322 186 324 174 q 326 163 326 161 q 325 158 344 91 l 358 41 l 373 -5 q 374 -9 380 -26 q 385 -42 385 -53 q 385 -61 384 -66 q 384 -79 381 -87 q 378 -95 369 -101 q 361 -107 349 -113 q 337 -119 333 -121 q 329 -121 324 -119 q 320 -117 319 -114 z"},"e":{"x_min":0,"x_max":334,"ha":334,"o":"m 96 123 q 96 146 99 174 q 101 198 118 240 q 136 282 166 322 q 197 362 238 381 q 257 390 270 394 q 283 397 300 397 q 341 397 366 382 q 392 367 402 348 q 413 329 413 315 l 413 310 l 413 307 q 413 295 399 263 q 385 231 354 203 q 324 175 276 172 q 252 172 230 176 q 207 181 201 181 q 186 181 182 170 q 178 159 178 133 q 181 105 194 94 q 206 83 230 83 q 242 83 258 90 q 274 98 296 115 q 308 125 315 129 q 322 133 332 133 q 341 133 353 121 q 365 109 366 98 q 364 86 344 62 q 324 38 292 19 q 260 0 223 0 q 166 0 131 32 q 96 64 96 123 z m 284 245 q 294 250 314 270 q 335 291 336 299 q 336 309 328 316 q 319 322 304 324 l 293 324 q 280 324 256 302 q 231 281 213 253 q 214 248 228 244 q 242 241 258 241 q 277 241 284 245 z"},"b":{"x_min":0,"x_max":444,"ha":444,"o":"m 180 38 q 172 46 170 51 q 169 56 170 61 q 182 61 184 65 q 184 68 188 69 q 191 70 195 69 q 221 67 268 97 q 314 127 368 177 q 396 213 406 228 q 416 244 416 254 q 416 259 411 269 q 406 277 395 277 q 377 277 346 257 q 303 230 277 208 q 251 185 229 155 q 216 138 204 124 q 193 111 189 106 q 189 102 178 96 q 166 90 158 90 q 153 92 146 98 q 140 104 139 112 q 137 114 130 118 q 124 123 121 129 q 118 135 118 143 q 118 158 128 194 q 137 235 148 276 q 160 316 164 320 q 165 322 168 331 q 172 340 172 350 q 174 359 178 370 q 183 382 183 384 q 188 388 215 463 q 215 467 237 516 q 269 591 277 612 q 282 620 294 641 q 296 644 302 654 q 309 665 313 667 q 320 669 344 657 q 367 645 374 634 q 375 632 376 630 q 378 627 378 624 q 378 619 372 606 q 367 593 360 580 q 354 566 351 559 l 322 499 q 280 407 250 320 q 241 292 234 275 l 229 253 l 255 282 q 273 300 300 319 q 312 327 335 337 q 358 347 367 349 q 399 357 422 357 q 459 357 490 304 q 499 288 499 263 q 499 245 494 227 q 489 209 481 195 q 476 191 471 184 q 466 178 466 174 q 465 168 449 147 q 433 126 414 105 q 388 78 346 51 q 303 24 275 14 q 269 13 252 10 q 236 8 229 6 q 192 10 180 38 z"},"%":{"x_min":0,"x_max":600,"ha":600,"o":"m 218 308 q 201 324 192 343 q 182 362 185 376 q 187 382 186 387 q 186 392 186 394 q 182 398 184 400 q 186 402 187 404 q 192 404 190 414 q 188 420 197 442 q 206 465 218 485 q 261 561 283 578 q 318 608 359 616 q 377 621 382 621 q 388 621 392 618 q 397 615 404 607 q 424 599 441 579 q 458 559 460 538 q 461 532 461 519 q 461 467 418 403 q 396 373 378 355 q 361 337 338 323 q 320 311 294 302 q 268 293 250 292 q 240 292 234 296 q 227 299 218 308 z m 101 -51 q 101 -22 132 22 q 152 44 155 52 q 164 65 226 136 q 289 207 315 237 l 317 237 q 321 237 325 242 q 329 246 331 252 q 334 260 340 266 q 347 272 352 273 q 355 278 359 282 q 363 287 364 290 q 364 292 368 296 q 372 299 373 302 q 398 323 512 446 q 627 570 632 580 q 635 589 644 589 q 649 589 652 588 q 656 590 660 590 q 664 590 668 588 q 670 585 678 576 q 686 567 690 559 q 696 550 696 540 q 696 531 692 524 q 687 511 680 503 q 672 495 644 470 q 637 463 630 457 q 623 451 616 445 q 590 419 546 372 q 501 325 500 322 q 490 314 479 300 q 461 283 434 258 q 408 233 407 230 q 406 229 404 225 q 401 221 395 219 q 393 220 391 217 q 389 214 388 213 q 388 204 355 173 q 282 85 236 27 q 189 -31 181 -50 q 174 -67 162 -78 q 149 -89 140 -91 q 123 -89 112 -79 q 101 -69 101 -51 z m 375 481 q 379 495 379 509 q 379 528 374 531 q 368 534 361 534 q 346 534 332 520 q 313 505 299 483 q 285 461 266 420 q 260 405 260 394 q 260 371 278 371 q 299 371 333 408 q 349 426 358 442 q 368 457 375 481 z m 364 -65 q 347 -49 338 -30 q 328 -10 331 4 q 333 10 332 15 q 332 20 332 22 q 328 26 330 28 q 332 30 333 32 q 338 32 336 42 q 334 48 343 70 q 352 93 364 113 q 377 137 396 166 q 415 195 429 205 q 465 236 505 244 q 523 249 528 249 q 534 249 538 246 q 543 243 550 235 q 570 227 587 207 q 604 187 606 165 q 607 159 607 146 q 607 94 564 30 q 543 1 525 -17 q 507 -35 484 -49 q 466 -61 440 -70 q 414 -80 396 -81 q 386 -81 380 -78 q 373 -74 364 -65 z m 521 109 q 524 120 524 136 q 524 156 520 159 q 514 162 506 162 q 491 162 477 148 q 458 133 444 111 q 431 89 412 48 q 406 33 406 22 q 406 -1 424 -1 q 445 -1 479 36 q 494 53 504 69 q 513 85 521 109 z"},"m":{"x_min":0,"x_max":569,"ha":569,"o":"m 559 27 q 551 30 538 42 q 526 53 516 74 q 507 96 507 126 q 507 145 510 160 q 512 174 512 178 q 512 183 509 183 q 483 183 396 88 q 393 86 391 83 q 379 74 369 64 q 354 50 344 44 q 335 37 324 36 q 317 36 309 42 l 298 51 q 293 54 289 62 q 285 70 285 77 l 285 80 l 285 82 l 308 149 q 333 204 333 214 q 333 216 332 216 q 323 217 306 200 q 288 184 256 149 l 211 102 q 203 94 168 54 q 146 27 145 27 q 123 27 106 44 q 88 61 88 85 q 88 97 92 117 q 96 137 101 159 q 103 167 106 177 q 108 187 111 200 q 113 210 116 222 q 118 234 126 254 q 134 273 149 308 q 153 321 153 335 q 153 342 152 348 q 151 355 151 357 q 151 372 166 382 q 180 393 198 393 q 224 393 237 374 q 250 356 250 336 q 250 319 242 303 l 231 276 q 227 267 216 244 q 206 220 206 215 q 206 212 208 212 l 209 212 q 214 212 225 223 q 257 253 302 286 q 348 318 368 324 q 376 324 389 316 q 402 308 412 294 q 422 281 422 265 l 421 257 q 420 253 412 223 q 405 193 401 188 q 420 210 467 242 q 514 275 536 276 q 569 276 579 249 q 589 222 593 170 q 597 121 604 104 q 606 98 618 94 q 630 90 638 84 q 645 79 645 63 q 645 41 626 32 q 606 23 579 23 q 566 23 559 27 z"},"#":{"x_min":0,"x_max":559,"ha":559,"o":"m 691 427 q 700 418 700 407 q 700 395 691 388 q 682 382 667 384 l 612 379 l 574 378 q 562 352 549 322 q 536 291 536 288 q 536 277 531 272 q 528 272 527 268 q 526 263 526 261 q 526 256 522 245 l 574 245 q 598 245 608 242 q 617 238 629 226 q 639 216 639 205 q 639 194 630 188 q 621 181 606 183 l 550 178 q 548 178 538 178 q 528 177 501 177 q 474 89 450 3 q 427 -83 427 -105 q 427 -126 420 -134 q 414 -142 402 -148 q 399 -149 393 -149 q 373 -149 360 -126 q 346 -103 346 -68 q 346 -47 350 -28 q 361 1 361 14 q 365 37 411 176 l 252 174 q 179 -67 179 -105 q 179 -126 172 -134 q 166 -142 154 -148 q 151 -149 145 -149 q 125 -149 112 -126 q 98 -103 98 -68 q 98 -47 102 -28 q 113 1 113 14 q 115 25 130 74 q 145 123 162 173 l 140 173 q 120 173 105 178 q 91 178 82 184 q 72 189 68 197 q 63 205 63 209 q 63 218 77 223 q 91 228 120 231 q 136 234 183 236 l 196 272 q 200 272 203 278 q 206 285 206 293 q 206 302 210 312 q 213 321 217 325 q 217 328 220 336 q 222 344 222 347 q 222 349 224 354 q 227 360 227 363 l 232 374 l 201 374 q 181 374 166 379 q 140 379 130 397 q 125 403 125 409 q 125 426 181 432 q 196 435 259 438 q 295 527 334 631 q 373 735 373 743 q 373 751 384 760 q 394 768 403 768 q 408 773 419 773 l 435 757 q 445 748 453 735 q 461 722 461 711 q 461 696 457 685 q 453 674 437 640 q 434 633 429 624 q 424 614 418 600 l 407 575 q 397 552 382 516 q 366 480 350 441 q 395 443 510 445 q 545 533 583 634 q 621 734 621 743 q 621 751 632 760 q 642 768 651 768 q 656 773 667 773 l 683 757 q 693 748 701 735 q 709 722 709 711 q 709 696 705 685 q 701 674 685 640 q 682 633 677 624 q 672 614 666 600 q 664 595 658 582 q 653 568 641 543 q 602 452 600 446 l 636 446 q 660 446 670 442 q 679 439 691 427 z m 482 377 l 324 375 q 312 350 300 320 q 288 291 288 288 q 288 277 283 272 q 280 272 279 268 q 278 263 278 261 q 278 258 273 240 l 324 241 q 398 243 434 243 l 444 272 q 448 272 451 278 q 454 285 454 293 q 454 302 458 312 q 461 321 465 325 q 465 328 468 336 q 470 344 470 347 q 470 349 472 354 q 475 360 475 363 z"},",":{"x_min":0,"x_max":198,"ha":198,"o":"m 25 -69 q 25 -63 29 -57 q 33 -51 40 -45 q 64 -22 93 33 q 98 48 109 92 q 109 112 114 117 q 132 132 142 132 q 165 132 174 78 q 176 64 176 58 q 176 32 157 -6 q 153 -16 130 -44 q 106 -72 102 -72 q 98 -72 93 -76 q 88 -80 87 -81 q 84 -84 75 -85 q 66 -86 55 -86 q 34 -86 25 -69 z"},"n":{"x_min":0,"x_max":459,"ha":459,"o":"m 379 95 q 379 114 382 132 q 384 154 384 163 l 384 168 l 384 179 q 381 199 371 199 q 353 199 304 164 q 256 130 203 82 q 187 65 176 50 q 166 37 161 34 q 156 31 145 31 q 131 33 113 52 q 95 71 89 86 q 89 114 99 140 q 109 165 129 204 q 138 234 152 264 q 167 299 174 318 q 180 336 182 356 q 182 357 182 357 q 181 357 181 357 q 181 361 184 364 q 187 367 191 367 q 193 370 203 370 q 229 370 248 356 q 267 342 267 313 q 267 298 262 284 q 256 271 241 240 l 230 218 q 227 212 221 200 q 215 189 215 186 q 240 203 274 231 q 324 271 356 293 q 388 315 403 315 q 416 315 440 300 q 463 286 467 274 q 467 267 466 253 q 464 239 463 228 l 464 197 q 465 189 465 173 q 465 141 461 128 q 462 127 463 125 q 464 123 464 122 l 463 120 q 464 110 474 88 q 484 66 484 64 q 484 53 470 40 q 455 26 442 24 q 379 26 379 95 z"},"h":{"x_min":0,"x_max":473,"ha":473,"o":"m 90 97 q 90 121 120 220 q 125 246 142 287 q 148 304 149 307 q 167 367 198 454 l 207 478 q 242 573 249 594 l 265 638 q 265 646 276 654 q 288 661 296 661 q 312 661 327 640 q 342 619 343 596 q 343 584 338 574 q 315 524 281 419 q 266 375 251 336 q 236 296 227 279 l 216 257 l 202 204 q 202 201 201 199 q 200 197 200 196 q 200 193 201 193 l 218 210 q 247 239 287 269 q 320 292 321 295 q 322 298 329 304 l 339 312 q 371 335 408 335 q 419 335 434 324 q 449 313 460 294 q 470 274 470 252 l 470 244 l 470 237 q 470 212 460 172 q 451 131 450 125 q 455 125 465 127 q 480 127 486 124 q 493 121 498 116 q 503 111 507 110 q 509 108 509 104 q 509 81 484 64 q 459 47 436 45 q 408 45 391 66 q 374 87 374 117 q 374 129 375 141 q 376 153 377 162 q 380 182 380 194 q 380 207 378 212 q 375 216 369 216 q 349 216 300 180 q 250 143 199 85 q 167 38 138 38 q 120 41 105 58 q 90 75 90 97 z"},"z":{"x_min":0,"x_max":315,"ha":315,"o":"m 82 6 q 64 6 54 10 q 45 13 34 21 q 23 28 23 46 q 23 73 53 103 q 91 150 128 180 q 137 187 150 196 q 164 205 185 220 l 225 247 q 232 253 278 287 q 275 287 254 290 q 234 293 212 291 q 191 291 184 292 q 176 292 168 294 l 153 294 q 144 294 123 309 q 102 324 101 334 l 117 352 q 120 354 125 358 q 130 361 133 361 q 136 361 138 359 l 212 363 q 270 362 297 360 q 324 357 337 352 q 350 346 365 333 q 375 323 381 310 q 387 297 387 286 q 387 272 380 265 q 379 264 374 258 q 369 252 366 252 l 318 221 q 308 214 288 202 q 262 186 258 181 q 249 177 240 171 q 232 165 227 160 q 222 154 212 144 q 202 135 191 128 q 176 115 163 102 q 150 90 146 85 q 150 86 166 88 q 181 91 205 92 q 229 94 255 93 l 325 95 q 342 96 364 96 q 385 96 394 92 q 401 90 405 76 q 409 61 409 48 q 409 40 408 39 q 403 39 376 36 q 348 33 315 32 q 289 30 192 18 q 177 15 140 11 q 108 6 82 6 z"},"B":{"x_min":0,"x_max":523,"ha":523,"o":"m 151 -5 q 151 16 172 29 q 176 31 183 31 q 193 31 204 28 q 216 24 222 18 q 248 -6 284 -6 q 300 -6 330 1 q 369 13 392 31 q 414 49 445 87 q 464 112 474 138 q 483 163 483 184 q 483 207 472 220 q 452 247 428 260 q 403 274 370 274 q 341 274 313 266 l 255 254 q 251 253 244 252 q 238 252 226 223 q 214 194 185 113 q 164 54 150 28 q 136 3 125 3 q 113 3 99 25 q 96 30 86 45 q 77 60 77 74 q 77 81 82 91 q 87 100 90 109 q 94 118 98 134 q 111 173 174 328 q 236 483 271 562 q 296 619 286 622 q 286 625 283 631 q 280 637 281 640 q 281 646 316 658 q 352 670 365 668 l 371 668 q 384 668 384 673 q 386 673 402 675 q 419 677 438 675 q 509 669 550 634 q 591 600 590 533 q 588 507 561 462 q 534 417 502 388 q 486 374 466 358 q 445 343 439 339 l 464 330 q 511 312 537 286 q 563 260 574 215 q 576 205 576 197 q 576 175 568 147 q 561 119 552 98 q 546 92 542 85 q 538 78 537 76 q 536 72 519 46 q 502 19 489 3 q 423 -53 380 -69 q 338 -88 280 -88 q 228 -88 203 -72 q 177 -56 164 -38 q 151 -21 151 -5 z m 358 363 q 360 364 370 370 q 381 375 392 386 q 455 445 480 492 q 505 533 505 550 q 505 562 494 573 q 475 595 431 595 q 412 595 399 591 q 385 587 378 582 q 372 576 372 565 q 372 557 367 548 q 362 538 356 532 q 355 526 350 520 q 346 514 344 512 q 344 510 330 485 q 317 460 305 429 q 275 358 275 343 q 285 345 315 352 q 345 358 358 363 z"},"K":{"x_min":0,"x_max":508,"ha":508,"o":"m 658 555 q 613 533 607 522 q 602 518 584 505 q 567 492 541 473 q 502 447 474 424 q 445 401 436 389 q 433 389 428 386 q 424 383 421 384 q 419 383 412 378 q 405 373 402 369 q 399 361 392 354 q 386 346 377 347 q 362 339 325 310 q 334 240 363 187 q 392 123 422 93 q 443 70 462 57 q 480 44 490 44 q 499 41 515 30 q 531 19 532 12 q 533 10 533 0 q 533 -13 528 -26 q 524 -40 513 -47 q 505 -55 495 -55 q 485 -55 462 -45 q 446 -46 407 -15 q 368 16 347 42 q 320 81 300 113 q 281 145 271 183 q 266 207 255 237 q 249 256 248 261 l 245 253 q 244 250 232 220 q 221 190 200 114 q 182 55 168 14 q 154 -28 146 -42 q 137 -57 129 -57 q 121 -57 109 -48 q 77 -30 77 -8 q 77 -4 79 4 q 78 17 81 29 q 84 41 84 43 q 91 43 91 59 q 91 67 100 94 l 109 125 l 121 154 q 132 182 132 184 q 132 197 145 217 q 149 229 152 243 q 155 257 155 266 q 157 271 166 289 q 175 307 179 325 q 180 330 182 336 q 185 342 188 351 l 221 441 l 236 475 q 238 480 250 506 q 261 532 265 532 l 265 543 q 265 547 276 569 l 288 593 q 296 606 300 618 q 305 631 306 635 q 307 637 310 642 q 313 647 317 651 q 325 657 338 662 q 350 666 360 666 q 377 666 383 653 q 395 629 395 613 q 395 602 389 593 q 368 550 339 486 q 310 423 296 386 l 303 391 q 329 417 386 460 l 509 560 q 537 574 575 604 q 585 610 591 615 q 597 620 601 622 q 607 627 625 640 q 643 652 648 651 q 655 654 666 643 q 677 632 684 616 q 692 600 691 592 q 693 582 686 574 q 680 567 658 555 z"},"R":{"x_min":0,"x_max":544,"ha":544,"o":"m 666 503 q 666 477 657 454 q 641 414 576 360 q 511 305 455 281 q 400 254 339 235 l 323 232 q 351 177 393 130 q 424 94 478 48 q 532 1 571 -18 q 575 -22 575 -30 q 575 -43 568 -60 q 561 -77 557 -79 q 545 -82 540 -82 q 515 -82 489 -65 q 442 -37 398 0 q 354 38 302 98 q 285 118 276 136 q 267 155 249 198 q 226 114 160 -60 q 159 -65 152 -68 q 144 -71 134 -71 q 110 -71 93 -57 q 91 -55 86 -50 q 81 -45 79 -42 q 77 -38 77 -34 q 77 -25 93 11 l 105 38 q 111 74 134 121 q 141 145 215 325 l 233 369 l 244 395 q 271 463 317 564 q 321 575 314 586 q 306 596 290 596 q 279 609 279 621 q 279 633 289 637 l 381 668 q 416 676 449 676 q 516 676 571 647 q 620 618 643 580 q 666 542 666 503 z m 572 508 q 572 528 554 552 q 537 577 518 583 q 470 595 449 595 q 432 595 424 588 q 417 580 412 561 q 412 559 400 535 q 374 480 362 449 q 352 431 340 404 q 324 371 314 350 q 304 330 302 324 q 301 317 305 313 q 325 314 346 322 q 368 330 414 349 q 577 425 572 508 z"},"T":{"x_min":0,"x_max":458,"ha":458,"o":"m 660 570 q 660 557 648 551 q 642 549 624 544 q 607 538 596 538 q 587 538 582 540 q 572 549 558 553 q 544 557 500 560 q 487 558 477 558 q 467 558 461 557 q 453 531 441 508 q 437 489 430 474 q 423 454 424 451 q 421 447 405 400 q 389 354 375 310 q 365 279 360 265 q 355 255 348 234 q 340 212 337 203 l 312 134 q 304 119 292 86 q 281 54 274 28 q 263 -11 254 -28 q 246 -45 240 -49 q 234 -53 223 -53 q 207 -53 195 -37 q 183 -21 183 -7 q 183 15 198 67 q 214 119 228 150 q 232 168 236 179 q 239 190 240 195 q 243 199 250 216 q 256 234 260 249 q 263 267 322 450 l 329 471 q 338 486 346 509 q 354 514 354 530 q 354 533 358 538 q 361 543 361 545 q 362 546 364 546 q 365 546 366 546 q 368 545 372 549 l 371 549 l 322 544 l 300 542 q 241 537 233 535 l 219 534 q 188 534 176 546 q 163 559 167 575 q 170 588 182 596 q 195 604 224 610 q 233 612 259 616 l 286 621 l 320 625 q 378 634 443 637 q 470 638 488 640 q 507 641 513 642 q 527 641 558 637 q 590 633 604 628 q 626 623 640 610 q 654 597 659 580 q 660 576 660 570 z"},"P":{"x_min":0,"x_max":468,"ha":468,"o":"m 95 -44 q 87 -37 82 -27 q 77 -17 77 3 q 77 38 99 104 q 106 132 114 158 q 121 176 121 185 q 121 193 124 204 q 126 214 126 218 q 138 218 148 259 q 152 274 155 284 q 158 295 159 301 q 161 304 164 310 q 166 316 168 321 q 176 345 187 367 q 199 412 216 462 q 232 511 243 535 l 255 565 q 256 568 260 576 q 263 585 263 589 q 263 593 260 595 q 253 600 253 615 q 253 640 272 656 q 283 669 302 674 q 320 680 346 680 q 357 680 385 678 q 397 677 449 677 q 455 674 471 668 q 505 654 505 651 q 505 646 508 644 q 512 642 519 641 q 530 641 558 614 q 587 587 598 564 q 607 546 610 536 q 614 526 614 511 q 614 505 612 489 q 610 473 607 458 q 604 443 600 439 q 584 427 584 418 q 584 408 555 362 q 526 316 504 295 q 478 265 442 242 q 400 223 348 209 q 295 195 268 196 q 236 191 228 188 q 221 184 217 171 q 212 157 208 143 q 203 129 203 124 q 197 113 178 57 q 160 1 153 -29 q 149 -42 137 -50 q 125 -57 115 -57 q 110 -57 104 -54 q 99 -50 95 -44 z m 268 275 q 294 275 336 291 q 372 303 416 330 q 438 345 468 383 q 474 393 492 430 q 500 444 508 466 q 515 488 515 505 q 515 513 514 517 q 504 569 456 586 q 424 591 411 591 q 404 591 388 589 q 372 584 366 576 q 359 567 347 537 q 315 476 305 449 q 286 381 272 344 q 258 308 256 302 l 256 298 q 256 292 255 286 q 254 280 257 277 q 259 275 268 275 z"},"|":{"x_min":0,"x_max":330,"ha":330,"o":"m 141 -149 q 120 -149 106 -126 q 93 -104 93 -68 q 93 -47 97 -28 q 108 1 108 14 q 112 33 149 148 q 186 263 191 272 q 195 272 198 278 q 201 285 201 293 q 201 302 204 312 q 208 321 212 325 q 212 328 214 336 q 217 344 217 347 q 217 349 220 354 q 222 360 222 363 q 239 395 304 563 q 368 731 368 743 q 368 751 379 760 q 390 768 399 768 q 404 773 415 773 l 431 757 q 441 748 449 735 q 457 722 457 711 q 457 696 453 685 q 449 674 433 640 q 430 633 425 624 q 420 614 414 600 l 386 535 q 338 426 338 421 q 338 418 334 408 q 330 399 327 389 q 319 373 302 332 q 284 292 284 288 q 284 277 279 272 q 276 272 275 268 q 274 263 274 261 q 274 251 258 208 q 223 89 199 4 q 175 -81 175 -105 q 175 -126 168 -134 q 162 -142 150 -148 q 147 -149 141 -149 z"},"t":{"x_min":0,"x_max":331,"ha":331,"o":"m 110 63 q 110 65 108 68 q 106 70 105 71 q 101 74 101 104 q 101 128 104 154 q 106 180 110 196 l 128 249 l 142 289 l 169 347 l 129 358 q 122 359 118 365 q 113 371 113 376 q 113 384 122 399 q 130 414 135 414 q 138 413 151 413 q 181 413 196 416 q 206 420 210 432 q 215 443 220 450 q 225 458 230 467 q 233 473 240 486 q 246 498 256 514 q 258 517 265 528 q 272 540 282 548 q 288 553 298 556 q 308 560 318 560 q 336 560 347 550 q 356 536 356 529 q 356 521 348 508 q 342 496 328 476 q 316 458 310 447 q 300 434 300 427 q 300 420 313 420 q 327 420 360 426 q 365 427 374 427 q 398 427 408 413 q 418 399 418 378 q 418 364 408 361 q 399 358 366 358 q 334 353 300 353 q 294 353 286 352 q 279 352 271 350 q 263 348 260 344 q 256 340 252 331 q 249 328 238 308 q 224 279 220 273 q 194 197 180 116 q 179 110 179 101 q 179 88 188 82 q 196 77 221 77 q 249 77 274 84 q 304 97 319 106 q 328 111 336 116 q 343 120 346 122 q 350 130 360 120 q 369 110 374 97 q 374 79 367 64 q 360 50 332 34 q 300 14 266 5 q 232 -4 202 -4 q 185 -4 171 -1 q 155 2 135 24 q 115 47 110 63 z"},"M":{"x_min":0,"x_max":729,"ha":729,"o":"m 37 10 q 37 33 48 55 q 68 97 88 123 q 95 133 98 140 q 102 147 103 159 q 117 177 140 224 q 179 287 251 418 q 261 436 290 489 q 320 542 330 552 l 335 559 q 332 554 346 582 q 359 610 374 632 q 390 655 402 655 q 415 655 432 644 q 449 634 462 614 q 474 593 474 565 q 474 553 473 546 l 463 478 l 458 456 q 445 390 419 275 q 396 173 396 152 q 396 146 398 142 q 400 139 403 139 q 405 139 413 146 q 421 152 427 165 l 440 185 l 457 210 q 485 249 526 316 q 567 382 659 544 q 678 572 690 593 q 706 619 721 642 q 736 665 744 671 q 754 679 769 679 q 784 678 800 668 q 817 658 828 640 q 840 622 840 601 q 840 577 826 513 q 811 449 792 389 q 788 368 767 290 q 751 232 744 198 q 736 164 736 143 l 736 135 q 721 108 721 27 q 717 -6 706 -24 q 695 -43 688 -43 l 685 -42 q 680 -42 676 -46 q 671 -51 663 -51 q 638 -51 630 -33 q 623 -15 623 16 q 623 34 624 46 q 627 72 688 317 q 736 509 736 518 l 722 494 q 702 456 672 405 l 602 274 q 589 256 580 239 q 572 222 571 219 q 559 195 523 150 q 511 135 509 131 q 504 120 477 92 q 450 65 420 42 q 390 20 370 20 q 343 20 322 46 q 300 72 300 109 q 300 136 310 199 q 326 268 344 339 q 362 410 369 432 q 372 441 372 452 q 372 459 370 461 q 369 461 368 459 q 366 457 364 454 q 349 430 317 370 q 285 310 248 229 q 105 -34 84 -58 q 69 -58 53 -38 q 37 -19 37 10 z"},"g":{"x_min":0,"x_max":364,"ha":364,"o":"m 425 277 q 425 254 410 234 q 407 229 399 218 q 391 208 385 197 q 379 186 376 172 q 373 153 364 126 q 356 100 353 91 q 345 70 335 35 l 319 -27 q 297 -103 268 -144 q 239 -186 214 -200 q 201 -205 189 -205 q 167 -205 144 -190 q 120 -176 103 -151 q 92 -136 75 -94 q 58 -53 64 -50 q 68 -36 93 -36 q 105 -36 115 -40 q 125 -43 126 -48 q 135 -74 148 -88 q 156 -101 166 -108 q 175 -115 184 -115 q 190 -115 192 -113 q 208 -101 216 -84 q 225 -67 240 -21 q 263 59 276 93 q 279 104 286 118 l 268 104 q 258 96 246 88 q 234 79 220 73 q 213 64 185 64 q 164 64 145 70 q 126 80 116 93 q 107 106 97 132 q 93 140 93 157 q 93 200 113 249 q 132 288 173 332 q 214 376 244 385 q 268 397 294 397 q 305 397 310 395 q 326 393 335 388 q 344 383 365 365 q 413 317 421 297 q 425 289 425 277 z m 314 292 q 313 317 292 317 q 271 317 256 305 q 240 293 215 262 q 200 242 190 214 q 181 189 181 171 q 181 149 193 144 q 225 145 243 155 q 261 165 285 203 q 303 228 310 248 q 316 268 314 292 z"},"j":{"x_min":0,"x_max":213,"ha":213,"o":"m 205 504 q 205 520 211 538 q 217 555 227 568 q 241 585 268 585 q 286 585 298 576 q 312 552 312 535 q 312 520 304 509 q 287 490 268 480 q 249 470 233 470 q 220 470 213 476 q 205 486 205 504 z m 11 -231 q -25 -231 -50 -205 q -69 -181 -78 -156 q -87 -131 -87 -111 q -87 -95 -81 -86 q -75 -76 -64 -76 q -55 -76 -40 -85 q -24 -94 -24 -104 q -24 -122 -20 -132 q -17 -142 -5 -143 q -2 -144 3 -144 q 22 -144 40 -116 q 57 -94 80 -34 q 102 25 105 33 q 113 61 120 95 q 126 129 128 138 l 141 208 q 144 231 150 252 q 155 273 156 278 q 156 303 163 317 q 163 330 168 350 q 172 369 172 374 q 176 378 194 372 q 212 365 220 357 q 232 344 238 332 q 243 321 243 293 q 243 276 240 247 q 240 235 230 186 q 220 137 211 101 q 206 82 204 76 q 198 55 196 43 q 195 35 183 2 q 171 -27 169 -39 q 166 -60 145 -104 q 138 -122 108 -160 q 79 -198 65 -209 q 44 -231 11 -231 z"},"i":{"x_min":0,"x_max":196,"ha":196,"o":"m 190 469 q 196 476 202 488 q 208 500 211 505 q 219 523 224 531 q 231 545 237 546 q 245 550 250 550 q 263 550 278 541 q 294 532 302 520 q 309 504 309 492 q 309 468 286 439 q 276 426 262 419 q 248 412 234 412 q 220 412 211 418 q 201 425 195 436 q 189 447 188 457 q 187 467 190 469 z m 89 67 q 89 86 94 96 q 94 101 96 108 q 98 115 98 117 q 97 123 106 150 q 118 177 136 233 q 155 289 162 313 q 162 318 166 322 q 170 325 178 326 q 189 330 206 316 q 223 303 234 286 q 240 280 240 270 q 240 255 227 228 q 222 217 218 201 q 213 185 210 171 q 198 144 191 121 q 188 108 187 101 q 180 64 174 53 q 168 28 157 16 q 146 3 132 3 q 115 3 103 17 q 89 31 89 67 z"},"y":{"x_min":0,"x_max":341,"ha":341,"o":"m 422 323 q 422 302 406 273 q 398 250 388 230 q 379 210 374 204 l 351 151 q 336 118 314 74 q 287 18 276 -9 l 263 -30 q 213 -110 186 -142 q 164 -162 134 -184 q 104 -205 86 -208 q 67 -212 44 -212 q 3 -212 -29 -198 q -61 -184 -66 -164 l -68 -152 q -68 -135 -54 -126 q -41 -116 -25 -116 q -15 -116 -10 -121 q -8 -122 6 -132 q 20 -142 44 -142 q 89 -142 132 -83 q 174 -16 196 24 q 176 36 157 64 q 138 93 140 104 l 140 115 q 132 115 128 145 q 125 175 125 219 q 125 267 127 286 q 131 302 132 326 q 132 349 132 356 q 131 370 138 380 q 144 391 150 395 q 163 400 171 400 q 217 400 217 302 q 217 283 216 273 q 214 225 214 205 q 214 128 235 105 q 244 126 250 135 q 264 164 266 172 q 268 179 277 195 l 290 222 q 292 228 303 260 q 314 293 325 313 q 329 321 337 336 q 345 352 350 359 q 355 366 361 368 q 369 375 378 375 q 387 375 397 369 q 410 355 416 346 q 422 336 422 323 z"},"@":{"x_min":0,"x_max":643,"ha":643,"o":"m 162 -83 q 144 -67 126 -44 q 107 -21 95 0 q 87 11 82 30 q 76 48 75 67 q 73 93 80 134 q 88 175 99 196 q 99 200 100 204 q 102 208 103 212 q 103 218 110 232 q 117 246 126 259 q 186 340 219 377 q 252 414 305 452 q 333 474 381 494 q 429 514 464 519 l 473 520 l 507 518 q 539 515 571 502 q 603 490 623 471 q 659 442 682 405 q 704 368 711 337 q 715 317 715 293 q 715 267 712 243 q 709 219 703 207 q 689 177 660 139 q 632 101 604 72 q 575 43 561 39 q 545 39 520 46 q 496 53 485 63 q 487 63 466 75 q 464 73 458 66 q 451 60 441 51 q 421 32 388 19 q 355 6 342 9 q 311 17 300 24 q 288 31 268 58 q 251 102 251 112 q 251 128 261 161 q 267 187 277 206 q 287 226 305 252 q 321 276 350 300 q 379 324 407 336 q 419 342 443 342 q 464 342 479 332 q 489 331 510 309 q 530 287 536 273 q 539 258 539 251 q 539 244 536 227 q 534 221 533 216 q 532 210 531 205 l 522 165 q 520 160 518 157 q 517 154 516 150 q 516 147 518 142 q 517 137 527 132 q 537 127 545 127 q 553 127 577 155 q 604 184 612 194 q 620 205 629 229 q 631 245 631 263 q 631 380 537 418 q 517 426 482 426 q 432 426 395 410 q 371 402 332 368 q 292 334 265 302 q 182 202 167 96 q 166 88 166 74 q 166 48 175 30 q 185 9 200 -4 q 214 -16 240 -33 q 277 -47 333 -47 q 353 -47 364 -46 q 372 -48 374 -51 q 377 -54 376 -62 q 376 -66 378 -76 q 380 -87 384 -96 l 385 -113 q 385 -124 378 -127 q 369 -131 344 -136 q 319 -140 307 -140 q 274 -140 234 -124 q 195 -109 162 -83 z m 425 147 l 432 160 q 449 191 453 213 q 455 216 460 231 q 460 237 458 240 q 457 243 451 247 l 452 247 q 436 251 423 251 q 411 251 404 247 q 389 241 372 216 q 354 191 343 162 q 332 133 334 115 q 344 96 362 96 q 369 96 376 99 q 389 107 405 122 q 421 138 425 147 z"},".":{"x_min":0,"x_max":198,"ha":198,"o":"m 130 45 q 113 45 96 58 q 81 73 81 88 q 81 113 118 139 q 138 152 149 152 q 157 152 176 144 q 206 124 206 103 q 206 75 162 52 q 141 45 130 45 z"},"p":{"x_min":0,"x_max":378,"ha":378,"o":"m 52 -234 q 42 -234 37 -225 q 36 -224 28 -213 q 20 -202 20 -181 q 20 -177 22 -165 q 33 -123 33 -107 q 33 -102 35 -92 q 37 -83 38 -75 q 42 -68 46 -54 q 49 -39 49 -28 q 49 -23 52 -16 q 56 -10 61 -6 q 61 0 64 12 q 67 25 68 30 q 73 57 107 158 q 141 259 165 321 q 177 349 185 373 q 193 397 193 407 q 193 411 196 414 q 198 418 204 424 q 212 432 225 432 q 242 432 258 421 q 265 410 268 402 q 271 394 271 384 q 271 381 269 365 q 269 344 257 327 q 245 310 246 311 q 295 341 337 341 q 382 341 409 310 q 436 278 436 235 q 436 218 420 184 q 404 151 394 142 q 388 142 378 121 q 366 105 332 88 q 299 70 287 74 q 286 74 284 72 q 282 69 282 65 q 282 61 252 51 q 222 41 200 41 q 188 41 182 42 q 176 44 170 49 q 163 42 163 36 q 163 26 153 4 q 143 -17 137 -17 q 136 -18 134 -21 q 133 -24 137 -28 q 137 -31 136 -42 q 135 -53 131 -59 q 131 -68 128 -84 q 125 -99 121 -107 q 121 -119 118 -130 q 114 -142 110 -142 q 104 -144 104 -171 q 103 -195 88 -214 q 74 -233 61 -233 z m 298 163 q 321 182 333 198 q 345 214 345 230 q 345 244 336 257 q 329 268 315 268 q 282 268 229 217 q 211 198 197 170 q 183 141 183 126 q 183 117 189 117 q 203 117 242 132 q 280 148 298 163 z"},"X":{"x_min":0,"x_max":524,"ha":524,"o":"m 668 601 q 668 558 637 514 q 614 491 611 475 q 589 449 554 410 q 520 370 513 365 q 489 344 464 320 q 439 297 433 289 q 415 269 411 266 q 421 224 432 194 q 443 163 463 124 q 475 99 490 79 q 504 59 516 52 q 519 49 527 49 q 536 49 537 52 q 549 55 552 42 q 556 30 556 16 q 557 2 557 -2 q 559 -9 549 -16 q 539 -24 523 -28 q 507 -33 493 -31 q 472 -29 448 -9 q 423 11 402 50 q 361 106 332 187 q 323 178 323 177 q 294 149 210 58 q 126 -34 121 -45 q 114 -57 100 -57 q 95 -57 92 -56 q 90 -57 82 -57 q 62 -57 58 -55 q 57 -54 56 -49 q 54 -44 52 -34 q 49 -30 49 -21 q 49 -3 61 30 q 68 45 76 54 q 85 64 116 92 l 151 125 l 180 152 q 201 173 201 173 q 202 176 209 184 q 216 192 223 201 q 241 215 280 254 l 307 279 q 301 305 298 330 q 293 363 287 390 q 281 416 279 418 q 278 421 280 423 q 282 425 283 425 q 285 427 285 429 q 285 431 283 434 q 281 437 280 440 q 278 446 274 468 q 270 491 267 520 q 258 605 256 617 q 254 619 254 622 q 253 626 253 627 q 255 633 265 642 q 275 651 277 653 q 287 660 300 660 q 321 660 338 642 q 354 624 354 597 q 354 571 360 565 q 358 561 362 521 q 365 481 368 471 q 364 459 368 454 q 369 448 371 434 q 373 419 372 414 q 371 409 375 394 q 379 378 381 371 l 385 359 l 388 363 l 411 387 q 459 435 487 467 q 580 578 605 630 q 611 643 615 647 q 619 651 624 651 l 634 650 q 650 649 659 636 q 668 622 668 601 z"},"*":{"x_min":0,"x_max":363,"ha":363,"o":"m 366 429 q 360 444 357 455 l 348 479 l 346 516 q 345 517 318 494 q 292 470 252 430 q 229 409 219 402 q 209 395 203 395 q 197 395 189 400 q 181 405 181 406 q 180 408 180 422 q 180 443 183 452 q 193 465 237 510 q 281 556 289 562 q 297 569 297 573 q 297 576 289 583 q 287 585 285 587 q 283 589 282 591 q 282 593 284 593 q 284 594 283 596 q 282 599 279 600 q 273 609 273 617 q 273 621 270 630 q 266 639 265 642 q 260 645 264 661 q 269 677 274 682 q 275 682 277 681 q 279 680 283 677 q 286 677 298 664 q 309 650 318 638 q 324 626 326 624 q 329 621 332 622 q 336 622 339 622 q 341 626 348 639 q 354 652 356 667 q 369 685 376 696 q 382 707 387 713 q 389 718 392 723 q 396 728 397 729 q 397 731 400 735 q 402 739 405 740 q 411 748 421 753 q 431 758 434 756 q 437 752 442 747 q 447 742 449 736 l 467 721 l 454 704 q 434 674 419 645 q 404 616 407 616 q 410 617 418 620 q 427 624 436 626 q 449 632 461 636 q 471 636 485 645 q 494 648 499 648 q 504 648 509 645 q 516 638 522 622 q 529 607 529 601 q 528 600 512 588 q 497 576 467 567 q 404 548 402 541 q 397 541 397 536 q 397 532 402 524 q 404 518 405 497 q 410 478 412 467 q 415 456 416 453 q 419 453 420 454 q 420 456 420 459 q 420 463 429 463 q 433 463 443 450 q 453 436 450 434 l 450 428 q 455 427 436 410 q 418 392 414 392 q 404 386 390 398 q 377 409 366 429 z"},"Y":{"x_min":0,"x_max":504,"ha":504,"o":"m 696 600 q 695 593 653 551 q 631 532 583 482 q 535 432 507 397 q 467 351 434 316 q 401 280 386 265 q 386 264 384 264 q 383 264 382 263 q 379 254 365 197 l 345 132 q 340 117 331 84 q 322 52 316 37 q 298 -31 285 -56 q 272 -81 258 -76 q 252 -75 219 -52 q 210 -42 210 -31 q 210 -22 218 7 l 224 31 q 225 55 234 88 q 242 121 254 142 q 254 157 264 188 q 274 220 285 247 l 297 281 l 279 303 q 257 336 246 362 q 235 387 230 423 q 219 463 219 507 q 219 521 221 585 q 222 628 234 652 q 247 677 248 680 q 259 690 271 690 q 289 690 299 661 q 309 632 308 595 q 314 393 348 365 q 351 364 357 364 q 366 364 374 371 q 383 378 402 399 q 426 426 433 433 q 457 457 487 492 q 517 526 529 540 q 599 625 621 638 q 625 646 642 652 q 658 657 664 658 q 668 657 670 652 q 672 648 674 640 q 677 631 681 625 q 683 621 690 613 q 697 605 696 600 z"},"c":{"x_min":0,"x_max":364,"ha":364,"o":"m 202 -6 q 161 -6 130 20 q 98 47 98 88 l 97 104 q 97 151 118 213 q 139 275 170 314 q 195 343 213 361 q 231 379 246 385 q 259 390 279 394 q 299 398 309 398 q 329 393 346 384 q 364 375 364 364 l 369 359 q 376 359 386 337 q 395 315 395 297 q 395 288 392 282 q 388 263 376 245 q 365 227 357 227 q 346 227 346 221 q 346 216 334 216 q 324 216 313 220 q 302 225 300 232 q 300 237 308 272 q 311 287 311 297 q 311 315 299 315 q 296 315 284 311 q 258 297 242 278 q 227 260 215 228 q 203 196 187 135 q 184 123 184 113 q 184 101 187 94 q 190 86 193 85 q 198 83 211 83 q 236 83 251 92 q 269 102 286 114 q 303 127 307 130 q 309 132 315 142 q 321 151 328 154 q 334 163 343 165 q 352 167 361 167 q 370 167 373 167 q 386 163 398 149 q 410 135 402 131 q 399 131 398 129 q 397 127 397 126 q 399 121 381 100 q 363 78 341 58 q 319 39 311 39 q 307 39 304 38 q 301 37 301 33 q 301 29 270 14 q 240 0 221 -4 q 209 -6 202 -6 z"},"!":{"x_min":0,"x_max":210,"ha":210,"o":"m 190 160 q 171 160 160 176 q 148 191 148 223 q 148 248 157 285 q 171 313 171 327 q 176 344 187 370 q 198 397 205 411 q 209 411 214 418 q 218 425 218 432 q 218 441 222 450 q 225 460 229 464 q 229 467 233 474 q 237 482 237 485 q 237 487 240 492 q 242 496 242 499 q 260 529 294 612 q 328 695 329 708 q 333 731 347 728 q 352 732 371 732 q 374 731 382 727 q 390 723 396 716 q 403 709 404 699 q 406 689 406 673 q 405 658 397 640 q 389 623 378 604 q 367 585 363 577 l 350 553 q 334 525 334 520 q 334 516 329 506 q 324 495 321 488 q 313 475 304 452 q 296 429 296 424 q 295 422 294 417 q 292 412 288 408 q 285 408 284 404 q 283 399 283 397 q 283 392 278 377 q 273 362 264 344 q 230 247 227 206 q 225 185 218 176 q 210 167 199 161 q 196 160 190 160 z m 114 -2 q 99 -2 80 12 q 65 27 65 42 q 65 67 102 92 q 124 106 134 106 q 141 106 160 98 q 190 79 190 57 q 190 29 146 6 q 127 -2 114 -2 z"},"/":{"x_min":0,"x_max":330,"ha":330,"o":"m 32 -61 q 32 -28 50 14 q 52 18 60 32 q 67 46 68 54 q 75 71 128 172 q 182 274 205 316 l 206 316 q 210 316 214 322 q 217 327 219 335 q 221 345 226 354 q 231 362 236 364 q 237 367 240 374 q 244 382 244 385 q 244 387 248 392 q 251 397 251 400 q 272 427 356 576 q 439 724 441 737 q 442 752 460 749 q 467 754 476 752 q 479 749 488 740 q 496 732 504 721 q 511 713 511 702 q 511 693 508 684 q 506 669 500 659 q 495 649 474 619 l 447 581 q 433 561 402 506 q 370 452 371 448 q 369 445 364 436 q 358 427 354 417 q 343 403 319 366 q 295 329 294 325 q 293 323 292 318 q 290 314 285 311 q 283 312 280 308 q 278 303 278 301 q 280 293 254 251 l 230 203 q 223 188 189 120 q 155 52 134 4 q 112 -43 109 -57 q 105 -79 96 -96 q 87 -112 79 -115 q 58 -116 45 -102 q 32 -88 32 -61 z"},"[":{"x_min":0,"x_max":330,"ha":330,"o":"m 44 -107 q 44 -93 53 -79 q 58 -76 62 -68 q 66 -60 66 -53 q 66 -35 94 65 q 122 165 130 177 q 130 183 138 201 q 146 219 161 242 q 192 343 242 468 q 293 592 317 629 q 325 663 325 671 q 325 692 336 702 q 346 712 374 712 q 390 714 418 716 q 456 719 480 723 q 503 727 536 738 q 548 740 569 751 q 590 762 592 762 q 603 765 608 760 q 613 755 624 738 q 636 723 636 714 q 636 707 630 702 q 625 697 613 692 q 503 656 455 650 q 437 645 423 640 q 409 636 406 633 q 402 628 386 592 q 370 556 370 552 q 365 547 341 498 q 317 448 314 432 l 304 408 q 277 342 273 329 q 265 310 258 285 q 250 258 243 242 q 243 236 240 225 q 237 214 233 207 q 222 189 215 162 q 212 157 208 149 q 203 141 203 138 q 203 127 198 112 q 196 109 195 104 q 194 99 194 98 q 191 93 186 77 q 179 50 173 36 q 167 20 165 12 q 163 7 158 -10 q 152 -26 152 -33 l 147 -61 l 177 -55 q 285 -40 325 -40 q 337 -38 340 -38 q 350 -38 356 -42 q 361 -46 366 -53 q 371 -60 376 -65 q 377 -67 380 -73 q 382 -79 382 -82 q 383 -85 381 -87 q 377 -91 332 -102 q 288 -112 255 -117 l 218 -117 q 218 -121 209 -124 q 200 -126 185 -126 q 174 -132 152 -137 q 131 -144 131 -144 q 109 -153 93 -153 q 77 -153 66 -144 q 56 -140 50 -130 q 44 -119 44 -107 z"},"6":{"x_min":0,"x_max":471,"ha":471,"o":"m 248 9 q 207 9 184 32 q 168 44 154 63 q 141 82 138 101 q 132 121 132 131 q 132 142 141 187 q 150 228 156 246 q 162 265 179 289 q 186 309 197 331 q 208 353 213 359 q 217 364 228 380 q 238 395 249 406 l 276 442 q 290 451 295 458 q 312 479 364 509 q 415 539 445 543 q 457 547 466 547 q 477 547 475 542 q 478 539 488 530 q 497 520 504 519 q 507 518 510 512 q 514 505 516 502 q 519 487 484 454 q 470 444 464 442 q 459 441 455 446 q 456 449 452 451 q 448 453 446 453 q 435 456 405 442 q 375 427 355 405 q 333 385 330 377 q 319 366 310 354 q 300 343 297 339 q 298 335 305 335 q 311 335 317 338 q 323 341 324 343 q 324 347 346 354 q 369 360 392 362 q 398 364 404 364 q 412 364 442 358 q 465 353 473 349 q 481 345 492 331 q 526 298 526 247 q 526 227 522 214 q 519 202 509 189 q 494 164 473 135 q 452 106 441 99 q 437 97 434 95 q 431 93 430 92 q 428 81 378 52 q 329 24 297 16 q 273 9 248 9 z m 259 90 q 270 90 291 99 q 311 105 314 104 l 355 131 q 397 156 420 188 q 444 220 444 245 l 443 253 l 443 255 q 443 260 440 267 q 438 274 438 276 q 435 276 429 278 q 423 279 414 281 q 404 284 395 284 q 377 284 309 267 q 303 265 294 262 q 285 258 279 257 q 277 254 270 250 q 262 246 256 244 q 245 242 238 227 q 232 212 222 169 l 218 144 q 215 129 215 123 q 215 116 218 111 q 220 102 224 99 q 228 96 237 93 q 242 92 248 91 q 253 90 259 90 z"},"r":{"x_min":0,"x_max":360,"ha":360,"o":"m 92 76 q 95 110 107 155 l 112 175 q 115 202 144 282 q 172 361 191 389 q 201 399 225 399 q 245 399 253 391 q 261 385 261 371 q 261 348 232 290 l 222 269 q 215 256 210 245 q 206 234 211 235 q 222 254 264 287 q 307 320 323 328 q 330 332 341 336 q 352 340 356 342 q 374 351 397 351 q 413 351 424 346 q 436 342 440 333 q 441 326 446 322 q 450 318 452 317 q 455 317 456 314 q 457 312 457 311 q 457 303 443 290 q 429 278 414 277 q 403 276 391 272 q 379 268 367 262 l 341 247 q 307 230 284 214 q 260 197 236 171 q 231 166 222 157 q 212 148 205 136 q 198 129 190 100 q 183 70 183 63 q 182 60 179 51 q 176 42 170 35 q 161 24 155 19 q 149 14 142 14 q 132 14 119 27 q 105 38 97 48 q 89 58 92 76 z"},"2":{"x_min":0,"x_max":450,"ha":450,"o":"m 118 57 q 117 58 117 63 q 117 70 120 79 q 123 88 126 88 q 129 85 138 103 q 148 121 149 127 q 150 131 156 134 q 161 138 163 139 q 168 147 178 156 q 187 166 190 170 q 194 175 205 186 q 216 198 225 207 q 249 229 260 241 q 312 297 314 306 q 315 307 318 310 q 321 313 326 316 q 341 326 354 339 q 357 354 381 378 q 389 389 396 402 q 402 416 405 426 q 408 436 404 439 q 400 442 376 449 q 359 454 348 454 q 333 454 316 446 q 300 439 275 422 q 261 419 253 415 q 235 409 230 410 q 227 411 221 419 q 215 427 210 432 l 200 475 l 231 492 q 305 539 352 539 q 364 539 375 536 q 384 536 393 534 q 402 532 404 531 q 417 532 444 512 q 471 492 480 472 q 493 451 493 427 q 493 388 463 343 q 441 317 396 268 q 351 219 341 211 q 329 205 283 156 q 237 108 241 108 q 240 104 254 109 q 267 114 272 116 q 295 124 332 130 q 369 137 390 137 q 400 137 404 135 q 406 131 408 132 q 409 132 409 133 q 410 137 423 137 q 446 137 477 128 q 487 125 494 120 q 501 115 501 111 q 502 110 504 106 q 507 101 512 95 q 520 89 520 80 q 520 71 509 64 q 498 57 479 57 q 465 57 457 59 q 431 59 414 56 q 411 54 396 54 q 380 53 372 53 q 367 54 358 54 q 335 54 293 40 q 271 31 221 18 q 171 5 162 8 q 156 10 139 28 q 122 47 118 57 z"},"{":{"x_min":0,"x_max":330,"ha":330,"o":"m 167 -134 q 164 -131 156 -122 q 147 -114 140 -106 q 132 -96 130 -86 q 129 -77 130 -58 l 130 -30 q 136 -25 137 -16 q 138 -6 138 -4 q 142 12 158 58 q 174 105 185 127 q 196 147 202 168 q 209 190 209 201 q 209 217 196 228 q 183 238 159 243 q 136 243 136 259 q 136 265 139 272 q 142 282 152 288 q 161 295 172 295 q 178 295 181 294 q 204 294 234 327 q 265 360 279 404 q 291 436 297 466 q 303 497 307 546 q 311 602 328 638 q 346 675 384 711 q 394 723 406 730 q 418 738 430 743 q 441 748 447 751 q 469 759 493 759 q 513 759 521 754 q 528 751 537 726 q 546 702 541 699 q 536 699 524 696 q 511 694 498 694 q 480 690 467 682 q 454 673 433 655 q 416 634 412 624 q 407 615 405 597 q 395 571 392 558 q 390 544 385 498 q 380 447 376 430 q 373 413 360 381 q 346 343 330 316 q 314 290 291 270 q 272 258 272 254 q 272 251 280 241 q 280 239 285 228 q 290 216 290 208 q 294 196 294 189 q 294 175 286 154 q 279 133 261 92 q 242 54 242 37 q 235 27 223 -18 q 220 -35 216 -47 q 213 -59 213 -63 q 213 -77 238 -77 q 242 -77 258 -75 q 270 -73 272 -73 q 279 -73 283 -76 q 287 -79 294 -88 q 302 -96 302 -105 q 302 -115 295 -124 q 288 -132 274 -136 q 249 -149 214 -149 q 186 -149 176 -142 q 167 -128 167 -134 z"},"9":{"x_min":0,"x_max":438,"ha":438,"o":"m 272 -14 q 273 -11 272 -10 q 271 -9 268 -9 q 267 -7 266 -1 q 264 5 265 11 q 265 15 266 24 q 267 34 267 45 q 269 72 284 128 q 300 183 317 233 q 330 267 330 274 q 330 284 316 284 q 309 284 304 283 q 299 282 289 282 q 250 282 222 314 q 193 345 193 385 q 193 403 198 416 q 203 430 218 454 q 249 500 299 540 q 349 579 388 586 q 402 588 414 588 q 445 588 460 582 q 474 576 492 556 q 511 535 524 513 q 536 491 533 480 q 527 449 518 432 q 509 414 495 399 q 472 379 437 310 q 402 241 377 170 q 358 116 358 76 q 358 59 363 59 q 369 58 377 56 q 385 54 391 53 q 394 49 394 45 q 394 41 389 28 q 384 14 352 -14 q 320 -43 312 -42 q 305 -41 288 -30 q 272 -18 272 -14 z m 313 355 q 335 355 360 374 q 385 394 407 429 q 416 440 422 450 q 427 461 430 463 q 433 466 439 473 q 445 480 448 484 q 450 489 450 492 q 450 496 446 500 q 438 512 429 512 q 423 512 399 504 q 390 502 382 498 q 374 494 366 488 l 345 473 q 339 467 329 469 q 328 469 326 468 q 325 467 325 464 q 326 463 326 460 q 326 451 313 441 q 277 404 277 384 q 277 375 283 369 q 295 355 313 355 z"}," ":{"x_min":0,"x_max":242,"ha":242,"o":""},"I":{"x_min":0,"x_max":409,"ha":409,"o":"m 105 -26 q 84 -29 62 -19 q 41 -9 45 4 q 46 17 74 30 q 103 44 143 45 l 185 46 l 195 66 q 198 72 199 78 q 200 85 202 90 l 211 126 l 226 174 q 256 265 265 302 q 270 314 281 350 q 292 386 298 409 q 344 550 336 552 q 326 553 283 548 q 240 544 235 541 q 230 534 218 543 q 206 552 203 563 q 202 566 202 573 q 202 587 209 591 q 219 600 260 611 q 302 622 338 627 q 355 629 372 634 q 390 640 399 648 q 420 655 434 654 q 441 649 468 649 q 491 649 503 650 q 529 652 539 652 q 599 652 611 624 q 613 614 613 609 q 613 596 606 588 q 598 580 585 581 q 567 576 518 575 q 452 569 447 561 q 442 556 440 552 q 437 548 434 544 q 435 535 416 479 l 398 426 q 370 339 362 319 q 355 302 352 284 q 344 257 338 232 q 331 208 324 186 l 285 47 l 345 52 q 404 58 416 58 q 426 58 429 56 q 432 54 433 50 q 434 45 435 43 q 444 31 444 20 q 444 2 420 -9 q 396 -20 354 -19 q 309 -21 281 -22 q 253 -24 246 -27 q 239 -30 239 -37 q 240 -46 233 -52 q 226 -57 215 -57 q 196 -57 181 -41 q 174 -31 158 -28 q 141 -24 105 -26 z"},"H":{"x_min":0,"x_max":574,"ha":574,"o":"m 104 -78 q 92 -75 84 -65 q 77 -55 77 -42 q 77 -35 78 -31 q 81 -28 84 -16 q 86 -3 86 7 q 89 13 91 20 q 93 26 96 38 q 104 82 133 186 q 162 290 169 297 l 169 308 q 169 311 171 320 q 173 329 180 339 q 184 351 186 362 q 189 374 190 380 q 194 385 204 410 q 213 435 216 443 q 223 462 234 488 q 244 513 248 521 l 248 526 q 250 528 258 546 q 267 565 273 578 q 280 594 310 661 q 312 665 321 684 q 330 703 330 708 q 340 719 352 719 q 367 719 380 706 q 394 692 402 677 l 412 661 l 375 589 q 360 562 348 538 q 336 515 336 511 q 333 504 326 482 q 318 460 309 432 q 295 394 286 375 q 278 359 278 356 q 278 360 389 360 q 406 360 451 361 q 496 362 508 364 l 560 369 l 588 458 q 598 493 632 594 q 646 636 664 656 q 682 677 696 677 q 700 677 716 666 q 733 654 736 646 q 747 635 747 623 q 747 609 731 584 q 719 563 697 505 q 688 478 686 474 q 686 453 676 443 q 672 439 662 414 q 652 390 652 386 q 652 378 649 368 q 646 359 642 355 l 635 331 q 600 204 580 155 q 580 150 575 137 q 570 124 570 119 q 568 112 561 91 q 554 70 554 66 q 547 35 540 -7 q 533 -49 531 -66 q 514 -68 503 -64 q 492 -60 482 -54 q 472 -47 468 -45 q 444 -32 444 -9 q 444 4 453 22 q 456 27 472 87 l 481 124 q 489 146 495 166 q 501 187 506 202 q 522 260 526 264 l 526 274 q 523 279 467 279 q 406 279 340 271 l 280 271 l 254 271 q 249 260 225 184 q 201 107 198 86 q 191 53 176 -6 q 161 -64 153 -91 q 147 -89 129 -84 q 111 -78 104 -78 z"},"4":{"x_min":0,"x_max":450,"ha":450,"o":"m 296 44 l 296 48 q 296 53 300 75 q 309 130 333 195 q 340 214 340 216 l 313 211 q 261 198 240 198 q 221 198 210 205 q 199 212 188 229 q 181 235 170 257 q 159 279 159 293 q 159 297 160 299 l 160 303 q 162 306 164 310 q 165 314 168 318 q 178 344 186 360 q 195 375 195 380 q 203 398 253 467 q 303 536 319 551 q 328 555 342 560 q 356 566 363 566 q 373 566 384 546 q 396 527 396 519 q 395 516 386 504 q 378 491 358 468 q 318 412 284 357 q 251 302 251 288 q 251 283 254 280 q 258 278 268 278 q 323 287 346 294 q 368 301 376 312 q 385 323 396 351 l 408 380 q 429 429 450 464 q 470 499 484 518 q 498 536 501 536 q 506 536 530 516 q 554 495 554 491 q 554 479 549 468 q 544 457 532 437 q 508 393 510 397 q 473 324 442 249 q 412 174 394 120 q 377 66 377 56 q 377 48 382 38 q 382 19 365 4 q 348 -12 331 -12 q 327 -12 318 -5 q 310 2 303 14 q 296 27 296 44 z"},"~":{"x_min":0,"x_max":446,"ha":446,"o":"m 279 216 l 271 221 q 265 225 254 234 q 242 242 232 248 q 222 253 214 253 q 197 253 182 234 q 180 232 172 224 q 163 217 153 216 q 151 211 146 205 q 141 199 138 199 q 120 199 108 212 q 97 224 97 236 q 97 243 106 258 q 116 273 136 290 q 156 308 185 320 l 210 323 q 232 322 245 320 q 258 317 269 309 q 295 289 314 278 q 334 268 351 268 q 366 268 402 285 q 406 287 420 293 q 435 299 447 302 q 459 305 468 305 q 479 305 490 294 q 500 284 500 271 q 500 256 483 239 l 462 227 l 408 203 q 391 196 380 192 q 368 187 361 187 q 338 187 323 193 q 308 199 279 216 z"},"D":{"x_min":0,"x_max":587,"ha":587,"o":"m 679 365 q 677 359 672 343 q 667 327 661 309 q 658 273 638 220 q 617 168 599 137 q 594 137 591 136 q 588 134 592 133 q 592 128 581 114 q 578 112 568 100 q 559 87 555 84 q 554 77 549 72 q 544 68 540 68 q 540 68 538 68 q 537 67 537 64 q 519 38 466 -8 q 412 -53 375 -68 q 365 -75 352 -81 q 338 -87 333 -89 q 326 -95 258 -101 q 248 -102 236 -103 q 224 -104 212 -106 q 206 -107 192 -107 q 160 -107 108 -94 q 95 -90 89 -85 q 83 -80 76 -70 q 68 -61 64 -56 q 51 -37 51 -13 q 51 4 58 16 q 66 27 82 30 l 85 30 q 89 30 101 26 q 101 55 108 79 q 117 120 164 255 l 176 289 q 183 306 196 353 q 207 390 220 429 q 234 468 240 478 q 243 486 246 500 q 261 551 276 588 l 283 621 l 272 626 q 263 623 256 623 q 251 623 245 626 q 236 623 220 636 q 205 649 203 659 q 201 662 200 668 q 200 674 200 676 q 201 683 224 692 q 247 700 281 706 q 315 712 346 712 q 360 712 367 711 q 392 709 429 700 q 466 690 496 679 q 529 667 566 637 q 604 607 634 567 q 663 527 673 485 q 676 472 679 449 q 682 426 682 408 q 682 387 678 382 q 675 378 675 372 q 675 366 679 365 z m 586 401 q 586 504 512 567 q 491 585 444 606 q 396 627 389 625 q 384 624 364 569 q 343 514 320 447 l 275 321 q 271 305 266 291 q 261 277 258 266 q 245 229 245 224 q 216 179 202 72 q 200 66 191 26 q 184 -7 181 -6 l 180 -15 q 198 -23 215 -21 q 221 -20 232 -19 q 242 -18 247 -18 q 277 -16 292 -14 q 306 -11 316 -3 q 360 27 388 48 q 415 70 421 76 q 423 81 442 88 l 470 117 q 495 144 502 149 q 503 156 506 164 q 508 171 508 175 q 520 188 544 238 q 568 287 577 323 q 586 365 586 401 z"},"^":{"x_min":0,"x_max":446,"ha":446,"o":"m 116 320 q 116 343 129 374 l 146 409 q 160 439 172 453 q 184 474 212 502 q 241 530 272 549 q 302 568 321 566 q 340 564 381 484 q 422 405 455 329 q 457 323 457 319 q 457 301 442 283 q 428 265 413 265 q 394 265 386 293 q 384 300 376 322 q 369 343 338 411 l 319 444 q 308 464 303 468 q 298 473 288 470 q 267 463 248 438 q 229 413 200 349 q 190 321 174 303 q 158 285 143 285 q 137 285 134 287 q 116 297 116 320 z"},"0":{"x_min":0,"x_max":450,"ha":450,"o":"m 199 37 q 131 95 131 195 q 131 214 135 244 q 146 308 182 372 q 217 435 265 477 q 320 526 373 539 q 387 543 432 543 q 451 543 476 534 q 501 526 519 514 q 537 503 537 493 q 537 483 536 478 q 534 473 527 476 l 517 476 l 527 446 q 531 437 534 424 q 537 411 537 400 q 537 380 527 329 q 517 278 510 260 q 506 252 506 239 q 502 232 490 204 l 480 183 q 476 180 474 176 q 472 172 475 169 q 475 164 465 146 q 455 127 451 127 q 450 127 448 126 q 446 126 446 123 q 446 119 432 102 q 418 84 401 67 q 385 50 346 26 q 308 3 293 3 q 280 3 246 14 q 213 25 199 37 z m 329 113 q 369 140 391 191 q 401 205 408 220 q 414 235 429 279 q 436 289 440 304 q 443 320 443 333 q 443 377 448 395 q 448 421 447 425 q 446 429 439 438 q 428 447 415 447 q 407 447 396 444 q 384 440 377 435 q 371 433 368 433 q 362 433 358 436 q 353 438 353 442 q 353 454 342 444 q 332 433 304 398 q 288 382 274 362 q 261 343 261 339 q 261 336 258 328 q 254 320 252 315 q 245 304 233 276 q 221 249 218 237 l 218 183 q 218 161 220 154 q 221 147 224 140 q 228 133 230 130 q 234 123 243 113 q 252 103 254 100 q 262 92 267 92 q 270 92 276 94 q 282 97 291 99 q 315 99 329 113 z"},"F":{"x_min":0,"x_max":466,"ha":466,"o":"m 77 23 q 77 33 80 43 q 88 79 110 146 q 131 213 148 247 q 155 259 159 272 q 163 285 164 289 q 169 307 170 310 l 169 320 q 169 324 171 328 q 173 332 178 337 q 192 349 208 384 l 246 493 l 258 527 q 259 531 262 541 q 265 551 265 555 q 265 559 263 559 q 255 557 231 556 q 219 554 213 554 q 207 553 204 552 l 197 552 q 178 552 178 566 q 181 584 190 600 q 200 616 214 617 l 253 626 q 262 628 278 628 q 292 628 307 625 q 319 633 320 639 q 324 656 338 666 q 352 676 367 676 q 379 676 387 670 q 395 663 395 650 q 395 644 394 641 q 394 640 394 638 q 394 635 400 635 q 410 635 459 646 q 467 647 486 648 q 506 650 519 650 q 538 650 548 647 q 557 649 564 649 q 571 649 576 650 q 593 650 597 653 q 606 651 618 650 q 629 648 634 646 q 639 644 643 641 q 646 637 646 634 q 646 631 645 630 l 643 631 q 644 631 646 630 q 649 628 652 625 q 660 621 660 605 q 660 593 656 581 q 655 575 652 572 q 648 570 635 570 q 622 569 601 570 q 563 575 538 575 q 503 575 430 565 q 412 564 396 560 q 381 556 377 555 q 372 555 362 540 q 352 525 344 502 q 338 493 307 415 q 283 359 283 359 q 295 355 329 355 q 374 355 460 363 q 499 371 513 369 q 522 368 528 356 q 535 345 535 331 q 535 321 531 313 q 527 305 520 301 q 499 288 433 281 q 389 277 312 277 q 271 277 263 279 q 261 278 258 273 q 254 268 254 261 q 236 228 204 144 q 171 60 171 42 q 164 24 160 1 q 159 -3 157 -10 q 155 -17 153 -19 q 150 -34 133 -34 q 119 -34 111 -25 q 77 -9 77 23 z"},"`":{"x_min":0,"x_max":353,"ha":353,"o":"m 308 448 q 305 458 284 495 q 270 519 262 535 q 254 551 254 562 q 254 573 262 583 q 271 593 282 599 q 293 605 296 605 q 310 605 319 592 q 330 583 352 530 q 374 477 374 464 q 374 456 355 438 q 336 421 328 419 l 324 418 q 318 418 314 426 q 310 433 308 448 z"},"k":{"x_min":0,"x_max":374,"ha":374,"o":"m 255 81 q 255 87 243 109 q 231 131 228 134 q 228 131 224 146 q 219 160 209 160 q 204 160 192 138 q 181 117 172 88 q 163 60 163 38 q 163 22 154 10 q 145 -3 129 -3 q 116 0 95 28 q 74 55 74 71 l 88 113 l 107 173 q 116 186 122 204 q 127 223 128 226 q 137 244 161 302 q 179 348 187 364 q 214 426 247 503 l 250 510 q 267 545 286 591 q 304 637 307 652 l 307 654 l 307 656 q 307 664 318 668 q 330 672 348 672 q 357 672 371 654 q 385 637 385 623 q 385 589 326 463 q 283 374 264 326 q 244 278 244 268 q 244 265 245 265 q 247 266 253 268 q 259 271 267 276 q 274 280 296 296 q 336 328 351 332 q 395 362 405 362 q 416 362 428 348 q 440 335 440 323 q 440 302 407 278 q 374 255 318 224 q 290 209 286 205 q 286 204 310 170 q 318 155 324 144 q 329 132 334 123 q 349 92 358 80 q 367 69 384 69 q 389 69 401 72 q 413 76 419 76 q 434 76 444 66 q 454 56 454 44 q 454 35 436 21 q 419 7 397 -4 q 375 -14 365 -14 q 346 -14 323 4 q 300 22 255 81 z"},"u":{"x_min":0,"x_max":370,"ha":370,"o":"m 308 70 q 306 76 306 88 q 306 99 306 104 q 302 95 296 84 q 290 74 284 70 q 261 47 238 36 q 206 16 183 16 q 155 16 135 42 q 103 68 103 104 q 103 109 105 123 q 107 160 116 194 q 124 228 148 281 l 178 341 l 194 372 q 199 374 210 374 q 226 374 240 368 q 254 362 255 352 q 258 348 258 337 q 258 305 231 252 l 223 233 q 205 190 197 166 q 189 142 189 126 q 189 110 201 105 q 206 102 213 102 q 233 102 262 133 q 290 164 320 237 q 334 271 337 307 q 335 318 343 331 q 351 344 364 352 q 368 358 375 362 q 382 365 384 361 l 400 362 q 403 363 410 353 q 416 343 419 341 q 429 333 429 309 q 429 276 405 218 q 386 178 380 156 q 373 135 372 115 q 372 94 376 82 q 379 71 393 59 q 409 48 406 7 q 404 0 395 -4 q 386 -8 373 -8 q 351 -8 336 2 q 327 11 322 26 q 316 40 308 70 z"},"]":{"x_min":0,"x_max":330,"ha":330,"o":"m 110 -126 q 95 -126 87 -124 q 82 -125 60 -125 q 40 -125 30 -123 q 17 -124 -4 -118 q -24 -112 -26 -112 l -41 -92 l -55 -82 l -43 -77 q -36 -68 19 -56 q 74 -43 85 -46 q 87 -46 98 -48 q 108 -49 119 -48 l 146 -45 l 156 -18 q 161 9 161 23 q 167 27 170 36 q 174 44 173 50 q 189 94 193 107 q 194 120 205 151 q 217 191 219 203 q 219 203 231 239 q 240 265 244 282 q 245 289 248 298 q 251 307 252 311 q 260 333 261 344 q 269 371 297 455 q 336 569 348 609 q 357 627 363 646 q 369 666 370 672 l 302 667 q 198 660 185 660 q 175 660 175 663 q 173 665 172 670 q 170 675 168 675 q 164 674 160 682 q 156 689 155 697 q 154 710 194 723 q 233 736 289 743 q 321 747 339 747 q 350 747 355 746 q 360 745 361 745 q 374 748 398 752 q 422 755 440 755 q 459 755 464 751 q 467 751 474 738 q 480 724 480 715 q 488 699 488 697 q 488 694 482 686 q 472 672 452 630 q 433 588 434 582 q 434 574 427 573 q 426 573 424 572 q 422 570 422 566 q 423 558 418 544 q 414 529 410 529 q 409 529 407 528 q 405 526 405 522 q 405 510 395 484 q 386 454 376 430 q 366 405 365 400 q 364 398 362 392 q 359 386 357 379 q 353 370 348 352 q 344 333 343 318 q 335 306 328 289 q 321 272 318 262 q 315 252 314 244 q 312 237 312 234 q 312 228 302 192 q 292 157 285 144 q 284 136 280 116 q 275 97 267 74 q 255 12 251 4 q 251 2 246 -3 q 242 -8 242 -11 l 242 -19 q 242 -28 237 -32 q 235 -36 234 -41 q 234 -46 234 -48 q 237 -48 236 -50 q 235 -51 235 -52 q 231 -52 231 -72 q 231 -101 216 -114 q 202 -127 170 -127 l 155 -126 q 118 -122 120 -124 q 122 -127 120 -126 z"},"U":{"x_min":0,"x_max":482,"ha":482,"o":"m 119 117 q 119 184 138 275 q 153 348 190 450 q 226 551 264 618 q 287 657 304 672 q 321 687 337 685 q 359 681 372 666 q 385 652 385 635 q 385 615 368 604 q 360 595 346 568 q 332 542 328 535 l 304 490 q 269 390 252 336 q 236 282 226 222 q 208 139 206 124 q 203 108 203 81 q 206 75 211 66 q 216 56 220 52 q 224 47 229 46 q 247 38 262 38 q 280 38 302 50 q 306 58 314 62 q 321 67 323 68 q 325 65 326 65 q 329 65 331 72 l 331 73 q 331 78 340 87 q 350 91 368 112 q 385 134 400 158 q 414 181 414 187 q 414 192 420 198 q 425 204 427 206 q 434 213 462 267 q 491 321 515 371 q 530 420 556 509 q 583 598 588 623 q 590 636 594 645 q 598 654 599 657 q 607 663 616 663 q 632 663 649 652 q 666 642 669 640 q 674 634 674 623 q 674 611 665 573 q 660 553 652 513 q 636 450 614 394 q 592 338 557 259 q 553 250 548 240 q 543 229 538 216 l 538 210 q 526 203 519 189 q 516 184 512 176 q 507 167 502 164 q 499 155 496 149 q 494 143 493 141 q 492 135 484 130 q 476 125 474 124 q 470 122 468 115 q 466 108 464 106 q 430 55 377 8 q 324 -39 284 -54 q 264 -62 249 -62 q 236 -62 229 -60 q 173 -46 146 -3 q 119 40 119 117 z"},"o":{"x_min":0,"x_max":362,"ha":362,"o":"m 129 26 q 109 47 98 70 q 87 92 90 109 q 93 116 92 123 q 92 130 92 132 q 88 136 88 138 q 88 139 90 140 q 92 142 93 144 q 99 144 97 155 q 95 163 104 190 q 113 217 127 240 q 138 258 160 285 q 181 312 198 326 q 248 369 288 378 q 308 383 327 383 q 356 383 372 367 q 394 358 404 341 q 414 324 417 296 q 418 290 418 276 q 418 202 362 122 q 339 89 316 69 q 293 49 260 29 q 242 17 222 13 q 202 9 168 7 q 156 7 149 11 q 142 15 129 26 z m 322 225 q 328 234 328 261 q 328 285 321 288 q 316 292 309 292 q 300 292 280 278 q 245 248 222 216 q 198 183 189 141 q 188 137 188 129 q 188 95 212 95 q 235 95 270 129 q 289 146 298 164 q 306 181 322 225 z"},"N":{"x_min":0,"x_max":619,"ha":619,"o":"m 77 -31 q 77 -15 84 11 q 93 46 108 78 q 116 97 124 120 q 132 143 137 170 q 157 216 172 260 q 188 303 192 315 q 193 322 225 391 l 242 427 q 266 494 286 535 q 307 576 338 623 q 354 649 386 649 q 405 649 420 640 q 435 631 440 615 q 449 594 454 569 q 458 544 460 480 q 461 460 461 422 q 463 338 466 294 q 469 251 479 215 q 485 175 486 162 q 492 115 497 89 q 502 63 507 63 q 519 63 540 119 q 562 175 605 350 q 611 370 619 408 q 627 446 631 482 q 642 523 652 568 q 663 612 663 616 q 663 621 664 626 q 664 631 663 638 q 667 638 672 651 q 676 664 676 675 q 676 704 690 718 q 701 738 722 738 q 738 738 752 728 q 766 717 769 703 q 772 682 741 550 q 741 538 727 478 q 718 444 713 413 q 709 384 704 363 q 698 342 694 343 q 653 167 589 21 q 574 -14 553 -34 q 532 -53 509 -53 q 481 -53 458 -24 q 428 15 414 56 q 400 96 391 172 q 373 283 373 396 l 373 428 q 374 498 364 498 q 358 498 350 480 q 342 462 330 427 q 325 411 285 309 l 268 265 q 250 229 241 192 q 210 112 192 50 q 175 -12 173 -20 q 170 -31 168 -41 q 165 -51 162 -59 q 154 -80 149 -88 q 144 -95 136 -95 q 126 -95 110 -85 q 77 -68 77 -31 z"},"+":{"x_min":0,"x_max":446,"ha":446,"o":"m 489 205 q 489 194 480 187 q 470 180 456 182 l 378 177 l 327 175 l 329 87 q 329 67 324 52 q 324 27 304 16 q 298 11 291 11 q 274 11 268 67 q 261 101 258 174 l 170 172 q 150 172 135 177 q 110 177 99 197 q 94 203 94 210 q 94 227 150 233 q 184 240 255 243 q 254 274 254 319 q 254 376 274 397 q 283 406 295 406 q 307 406 314 397 q 321 388 319 373 l 324 295 l 326 246 q 357 247 402 247 q 458 247 480 226 q 489 217 489 205 z"},"G":{"x_min":0,"x_max":494,"ha":494,"o":"m 104 81 q 104 213 145 332 q 192 471 244 549 q 297 627 345 657 q 360 666 390 675 q 420 684 450 684 q 466 684 487 681 q 529 670 570 643 q 610 616 610 584 q 610 568 592 552 q 574 535 555 535 q 545 535 540 541 q 521 568 502 582 q 483 595 456 595 q 383 595 325 504 q 267 414 233 293 q 199 172 194 88 q 194 56 203 41 q 212 26 235 26 q 273 26 324 56 q 376 85 410 138 q 453 219 453 247 q 453 263 438 263 q 388 263 366 267 q 344 271 337 286 q 324 290 324 306 q 324 329 344 340 q 364 351 414 351 q 456 350 482 342 q 509 335 525 312 q 541 290 541 248 q 541 230 538 215 q 519 129 462 65 q 405 1 336 -32 q 268 -66 216 -66 q 188 -66 162 -48 q 137 -30 120 4 q 104 37 104 81 z"},"q":{"x_min":0,"x_max":377,"ha":377,"o":"m 205 -183 q 202 -170 202 -150 q 202 -108 215 -48 q 228 13 251 79 q 256 89 262 102 q 268 116 267 119 q 247 109 239 104 q 204 85 188 78 q 171 72 158 72 q 145 72 129 88 q 113 103 102 124 q 90 145 90 161 q 90 177 106 210 q 121 242 141 270 q 152 288 191 320 q 230 352 255 367 q 265 373 287 383 q 305 394 313 394 q 325 397 339 397 q 364 397 384 391 q 397 382 414 359 q 431 336 435 317 q 435 300 431 287 q 427 274 408 232 q 394 210 382 186 q 371 163 371 158 q 366 145 328 62 q 327 55 320 31 q 303 -31 291 -87 q 283 -135 283 -164 q 283 -196 291 -209 q 294 -218 284 -226 q 274 -235 261 -235 q 256 -235 246 -231 q 243 -229 232 -222 q 222 -215 215 -205 q 208 -195 205 -183 z m 291 216 q 316 240 334 272 q 352 304 347 316 q 345 320 340 320 q 320 320 270 281 q 233 253 213 230 q 193 207 181 180 l 170 151 q 199 148 226 164 q 254 180 291 216 z"},"d":{"x_min":0,"x_max":402,"ha":402,"o":"m 331 8 q 326 22 324 36 q 322 49 321 72 l 320 106 l 279 69 q 216 10 162 10 q 146 13 122 37 q 97 61 90 78 q 86 86 86 103 q 86 141 106 194 q 126 248 156 281 q 178 314 209 331 q 240 348 272 348 q 302 348 325 335 q 339 328 348 328 q 358 328 361 341 q 362 346 373 381 l 384 413 q 406 479 422 519 q 438 559 461 607 q 471 628 482 638 q 493 648 502 647 q 515 647 530 638 q 546 630 551 617 q 554 610 554 600 q 554 589 548 577 q 522 532 484 430 q 446 328 425 253 q 417 226 414 178 q 410 130 410 84 q 410 40 413 29 q 415 23 415 13 q 415 -4 404 -10 q 392 -17 374 -19 q 361 -22 349 -13 q 337 -4 331 8 z m 260 132 q 290 154 304 171 q 317 188 325 214 q 327 219 327 228 q 327 246 310 261 q 300 269 287 269 q 266 269 243 247 q 217 223 201 194 q 185 164 174 113 q 172 106 176 102 q 180 97 189 97 q 196 97 209 102 q 232 111 260 132 z"},"1":{"x_min":0,"x_max":450,"ha":450,"o":"m 354 -20 q 343 -20 328 -15 q 312 -10 305 -3 q 299 2 296 7 q 293 12 293 24 q 293 40 300 71 q 305 95 314 126 q 323 158 326 167 q 334 171 362 265 q 377 319 396 376 q 404 400 412 416 q 419 433 421 437 q 414 433 389 418 q 364 403 338 383 q 327 376 301 356 q 273 334 260 327 l 243 314 q 240 312 232 306 q 225 300 220 298 q 216 296 213 296 q 209 296 205 299 q 191 311 180 332 q 169 353 175 363 q 177 364 214 391 q 249 416 260 423 q 262 423 271 430 q 280 438 288 443 q 291 447 335 478 l 388 517 q 422 538 452 553 q 483 568 487 567 q 493 566 514 552 q 535 537 536 529 q 538 525 538 522 q 538 515 530 497 q 521 478 498 409 q 474 340 462 300 q 455 274 441 236 q 438 227 432 210 q 427 194 423 177 q 414 155 403 116 q 392 77 386 50 q 379 31 374 12 q 367 -14 363 -18 q 359 -20 354 -20 z"},"5":{"x_min":0,"x_max":434,"ha":434,"o":"m 153 38 q 151 42 149 43 q 147 44 144 44 q 140 42 136 64 q 132 87 134 95 q 137 101 148 106 q 158 110 168 110 q 184 110 185 102 q 187 94 200 90 q 212 85 231 85 q 314 85 366 153 q 374 170 380 198 q 387 225 387 240 q 387 249 384 249 q 384 251 382 257 q 381 263 378 271 q 373 285 355 301 q 337 317 320 324 l 310 325 q 292 325 254 320 l 244 319 q 237 319 235 320 q 233 321 233 322 q 225 324 206 342 q 186 359 186 366 q 189 381 220 428 q 251 475 273 497 q 301 527 340 544 q 378 561 418 561 q 453 561 469 555 q 485 549 498 531 q 504 519 504 507 q 504 494 498 484 q 492 475 483 475 q 477 475 474 477 q 463 484 443 484 q 420 484 385 474 q 378 471 364 466 q 350 461 343 456 q 336 451 333 444 q 331 442 328 438 q 325 435 322 436 q 321 435 318 432 q 316 428 316 425 q 313 422 311 419 q 309 416 308 416 q 306 415 304 418 l 303 408 q 302 401 307 398 q 312 396 332 394 q 360 390 372 386 q 384 382 407 368 q 437 350 451 312 q 465 274 465 227 q 465 203 462 180 q 459 155 456 144 q 452 133 439 113 q 405 65 342 34 q 280 3 225 3 q 191 3 171 16 q 164 21 158 28 q 153 34 153 38 z"}}}
